<svg xmlns="http://www.w3.org/2000/svg" xml:space="preserve" viewBox="0 0 3333.3 2666.7"><path d="M0 2667h3333V0H0Z" fill="#fef8d6"/><path d="M2924 1333a1258 1258 0 1 1-2515 0 1258 1258 0 0 1 2515 0" fill="#fde3c4"/><path d="M2367 1063c-28-96-74-186-121-273-40-73-84-149-166-177-90-31-199-5-289 17-92 23-182 56-266 102a817 817 0 0 0-392 464v2c-94 49-131 167-123 272a299 299 0 0 0 116 218c-15 4-30 13-40 27-8 11-1 29 12 32l25 5c14 8 25 18 35 29l1 5c11 34 35 60 65 73 1 5 4 9 8 13 127 101 269 195 419 257 56 24 118 26 160-23 27-31 36-70 28-107 75-17 148-39 218-68a398 398 0 0 0 301-403c2-58 5-113 16-170 20-101 21-195-7-295" fill="#fde1c3"/><path d="M1326 1687c-2-5-5-9-9-12-1-3-3-5-6-7-9-4-20-4-27 4l-15-3c-28 0-43 23-48 47-4 14-5 29-2 40l5 13a40 40 0 0 0 40 24c2 6 6 10 14 10 13 1 17-12 14-21a83 83 0 0 0 24-69l3-3c6-6 8-14 7-23m90 280c-13-24-47-40-67-57-23-18-46-35-71-52-6-4-11 3-9 9 14 31 31 56 57 78 21 17 48 44 77 44 11-1 17-12 13-22m-210-481c-11-16-26-29-43-37l-9-11c-10-8-22-14-36-14-26-1-46 21-45 47 2 42 48 79 83 94 22 10 48 8 60-15 11-21 2-46-10-64m1135 0c-46 18-83 39-134 29-42-8-79-33-107-66-66-77-58-188-22-277 17 4 36 3 55-6 31-15 53-41 67-71 10 20 22 38 39 51 14 10 39-3 37-21-3-31-19-55-29-84-11-30-18-62-22-94-4-36-60-27-61 7-1 36-2 74-16 108-7 16-18 36-32 47-7 5-27 12-40 10 11-88 0-178-27-263-8-26-52-33-58-1-14 81-29 165-73 236-19 31-43 60-74 81-7 5-14 11-23 7-12-4-6-6-7-17-2-22 6-47 8-68 8-84 7-168-3-251-8-71-23-135-45-201l3-93c0-36-54-37-56-1-10 181-41 368-147 520a568 568 0 0 1-290 215l-55 13c-18 4-38 14-57 15-19 2-19 28 0 30 25 3 44 11 70 9a385 385 0 0 0 120-29 273 273 0 0 0 466 211c4-4-1-12-6-8-81 59-209 69-297 21-49-27-87-71-111-121 1-34-1-66 10-101 5-14 10-28 18-42 69-42 128-98 177-163a813 813 0 0 0 141-348 2676 2676 0 0 1 5 331c-2 35-17 86 7 117 49 66 145-26 177-67 33-42 54-89 69-139 3 37 2 75 0 114-1 18 14 28 29 29l12 9c-58 105-59 234 24 328 63 71 215 106 280 17 12-15-9-29-22-23" fill="#f8a8a4"/><path d="M1993 1338c-22-10-44 2-67 4-12 0-12 19 0 18 22-1 46 10 66-2 7-4 9-16 1-20m-180 630c-85-3-174-8-255-37-35-13-69-31-99-55-27-22-47-50-74-70-9-6-18 3-16 12 10 66 85 117 145 146-2 7 3 14 10 17l26 8c5 2 11 0 15-4l39 11-2 1-4 4-27-12c-13-6-25 13-12 20l28 16c-1 26 23 53 44 66 89 55 191-6 199-105 1-10-8-18-17-18" fill="#f8a8a4"/><path d="M1973 2271c-8-7-18-9-27-4-3 1-5 3-7 6l-1 2c-5 6-3 15-1 22 7 17 17 33 22 51l4 14-1 6c-1 11 1 21 3 32 2 10 12 16 21 17l10 1c9 2 21-8 23-17 9-44-12-101-46-130" fill="#fde1c3"/><path d="m1980 2314-2-4c3-8 7-16 8-26 1-7-10-14-16-9-19 13-22 34-20 55 2 20 7 46 18 63 4 5 12 1 9-6l-2-4c6 1 12-1 11-8-2-20-3-41-6-61m-6 90c-8 0-8 13 0 13 9 0 9-13 0-13" fill="#f8a8a4"/><path d="M1992 2175c-31-54-74-118-130-150-2-14-24-20-33-6-24 38-52 83-101 88-55 6-87-46-117-83-17-21-28-29-54-31-39-3-78-47-110-71l-4-9c-5-10-18-3-17 6 4 20 3 49-16 62-20 12-31-6-41-20-8-10-22-1-24 9-2 19 11 33 27 40 26 36 85 51 120 76l-2 3c-30 81-41 172-57 258l-3 6v6l-1 6v5c0 6 2 11 5 14 7 12 21 20 39 26 48 15 101 23 151 28 111 10 221-1 331-9 15-1 25-12 21-27-7-36-15-73-27-107 23-6 49-16 61-36 17-27-5-60-18-84" fill="#fabb09"/><path d="M1630 2406a417 417 0 0 1-92-325c1-6-5-10-11-9l1-2c0-3-2-5-4-7 0-3-1-6-3-8-14-17-33-27-50-40-19-16-36-46-30-72 1-6-8-12-12-5-10 22-15 42-5 63l-3-2-2-3-3-3-5-2c-4-3-8-4-11-4-2-3-4-5-8-7l-2-1-4-1-3-2h-1c-3-2-6-3-8-7-3-4-7-6-12-4-4 2-7 7-6 12 4 14 14 26 29 28 0 3 2 6 4 8 28 31 74 56 116 62l-8 19-3 4a767 767 0 0 0-63 277c-2 13 3 26 17 30 52 17 105 30 158 40 23 4 40-20 24-39m351-139c-9-31-20-60-35-89-14-29-34-50-54-76-6-7-20 3-14 11 32 48 56 107 71 162 6 20 38 12 32-8" fill="#f68b11"/><path d="M1994 1684c0-32-13-46-31-58-16-27-43-49-75-32-7 3-8 13-3 19l4 3-2 8c-9 66 1 135 20 199 2 5 6 10 11 14 3 13 20 22 30 10 36-40 46-110 46-163" fill="#f274ad"/><path d="m1979 1633-10-8c1-3 0-6-1-9-13-25-45-34-70-35-12-1-19 9-20 19-2 15-1 29 2 43 3 15 19 18 30 13 16-6 35-3 46 10 9 12 10 26 16 39 3 6 12 7 16 3 21-21 9-57-9-75" fill="#f13f91"/><path d="M1689 1128c-101-26-169 52-186 140-33 70-35 154 16 216 34 41 90 62 142 50 52-11 84-52 100-100 31-93 54-275-72-306m613 83c-21-42-67-78-117-68-13 3-24 8-34 16-62 7-79 105-79 154 0 40 2 129 47 147 21 29 52 46 96 36 112-26 130-198 87-285" fill="#fff"/><path d="M1701 1120c-42-11-86-3-123 18a202 202 0 0 0-87 245c4 11 19 9 20-2 5-68 23-145 83-186 26-18 59-26 91-19 29 6 46 31 73 36 13 2 28-5 27-20-1-41-47-64-84-72m536 3c-64-16-121 32-132 94-2 11 13 16 18 5 15-41 70-67 111-47 37 18 38 56 52 90 5 12 22 9 29 0 40-54-26-129-78-142" fill="#e8e9e9"/><path d="M2508 2095c-52-81-127-98-205-85-4-3-8-5-13-6-53-2-101 23-137 60-4 4-7 9-7 14-36 32-67 68-83 115-18 52-14 114 24 157 40 45 99 59 157 66 73 9 162 19 235 1 58-15 73-67 74-121 1-68-7-142-45-201" fill="#f9d406"/><path d="M2416 2109c0-5-4-9-9-11-3-5-7-9-12-10-9-2-16 0-25 3-13 4-21 19-13 32 6 10 18 18 31 17 8 0 14-3 20-8 7-6 10-14 8-23" fill="#fabb09"/><path d="M2559 2272c-5-18-31-20-37-1-21 68-83 80-146 69-69-19-139-43-180-103-10-17-15-37-17-59v-4l18-67c3-10 0-19-6-25 6-14 14-27 26-38 9-8-2-21-12-16-22 11-36 29-46 49l-6 4c-59 50-99 127-91 206 9 83 78 119 152 136 81 19 175 23 254-4 63-20 112-79 91-147" fill="#fabb09"/><path d="M2443 2175c-2-16-13-28-28-32-24-14-67-5-73 23-10 41 40 52 71 46 17-3 33-18 30-37" fill="#ed7017"/><path d="M2284 2024c-22 0-39 15-53 32-5 7 6 16 12 9 13-13 29-20 45-29 5-3 3-12-4-12m32-11-8 2c-5 2-6 9-4 13 3 4 9 6 13 3l5-3c5-5 2-16-6-15" fill="#fcf382"/><path d="M2311 2135c-15-4-34 0-49 5-18 7-32 25-21 45 9 17 28 16 44 13 12-3 27-4 36-13l8-7c11-17 1-38-18-43m197 7c-8-9-19-12-30-12-11-1-21 2-28 9-10 9-13 25-6 37 5 8 13 13 22 15 5 4 13 7 20 7 14 1 27-10 31-23 3-12-1-25-9-33" fill="#f14878"/><path d="M2542 1796c-20-7-39-5-55 5l-17-4c-8-5-16-9-26-10-24-3-48 12-59 33-15 28-6 59 14 79 42 59 152 64 183-8 16-37-1-81-40-95M1301 188c-39-17-69 3-87 33-13-7-27-11-43-10-26 1-51 17-59 42-9 29 6 61 31 82 15 32 52 51 88 47 43-5 84-39 103-77 21-41 12-97-33-117" fill="#f25796"/><path d="M2497 961c-9-72-23-144-57-209-37-69-94-122-157-167-67-48-141-94-216-128-62-29-97-25-200-20l-3-1a655 655 0 0 0-308-50c-81 10-157 39-222 86-22 10-43 22-65 33-26 13-72 45-107 46-54-44-144-49-210-38-81 14-155 54-214 110a554 554 0 0 0-131 195c-18 43-30 88-40 134-8 39-18 81-14 121a1172 1172 0 0 0 141 729l21 40c22 83 71 154 104 232 21 48 60 136 2 170-52 31-124 14-171-16-15-10-33 8-25 24 45 81 103 168 204 178 91 9 201-40 265-104 158-158 48-384-52-542l3-3c4-3 31 9 36 11 26 8 52 17 79 22 14 2 30-9 25-25-6-18-15-29-32-39-9-5-22-5-30-11-17-2-15-14 5-36 8 4 15 6 23 8 12 3 21-11 12-20l-18-26c-2-10-3-20-2-32 2-6 1-13-5-19-47-48-85-112-89-181l1-3c12-31 36-57 64-74 24-14 51-17 75-28 16 54 49 105 88 129 8 5 16-4 13-11l-28-60c-3-9-4-17-5-26-1-31 8-58 24-84 2-2 3-4 3-7 22-21 49-40 64-53l10-9c55-23 105-69 145-109 45-46 83-97 114-152 42-59 70-138 89-203 12-37 44-129 22-178 8 1 17 35 21 47a1783 1783 0 0 1 60 234l16 83c-9 77-14 155-20 231-7 9-12 19-10 32 3 16 17 28 34 28 42 0 81-65 102-95 41-60 76-135 89-210 30 72 30 160 24 234 0 10 10 20 20 20 72-4 80-99 90-155 9-53 19-112 15-169 6 3 13 4 19 1 5-2 10-7 13-14a338 338 0 0 1 70 119c22 66 28 135 35 204 1 17 25 34 39 17s27-36 38-56l-2 41c-1 36-2 72-5 108-1 19 23 28 36 16 80-77 130-212 85-320" fill="#ebc57e"/><path d="m1916 954-2-14h6l-4 14m-823 132c-46-10-72-53-89-98-3-44 2-89 12-131 12-50 35-94 51-142 4-12-11-18-19-11l-6 5 6-8 37-25c-14 55 5 123 27 169 13 27 33 59 57 86l1 9c15 55 9 165-77 146m-144 263c-15-3-28-9-38-19-8-18-15-38-20-57-20-77-13-153 1-229 2-11-12-19-19-9v1c19-62 38-125 65-184l41-58a446 446 0 0 0-5 333 866 866 0 0 0 33 121h1a2082 2082 0 0 1 14 48c-4 33-34 60-73 53m-30 256c-47-89-88-181-110-278 3-46 11-92 21-137-1 42 4 84 15 124 13 47 53 136 109 161 14 45 2 99-35 130m450-880a628 628 0 0 1 37-59c30-41 64-79 104-109l2 1a684 684 0 0 0-152 191l9-24m698 79a610 610 0 0 0-167-277c-7-6-17 1-13 10l9 22-27-35c-6-7-17 2-12 8 33 45 53 110 67 163 14 54 18 111 13 167v1l-5 6c-1 6-5 10-9 14-8 10-16 7-25-8 1-10-12-14-19-9l-4-51a485 485 0 0 0-141-308c-9-9-25 1-19 12l-3 4c-24 67-32 139-55 206-24 72-57 140-98 204a832 832 0 0 1-192 210l5-8a2500 2500 0 0 0 162-308c25-57 39-117 61-174 5-11-13-16-17-5-24 56-57 107-85 161a5715 5715 0 0 1-168 297l-20 30c5-94 23-185 59-275 48-123 128-238 217-336 5-6-2-17-9-12l-16 11c5-8-1-22-13-18l-11 4c-31-29-86-41-124-45-63-5-111 15-159 53-8 6 2 16 9 13a288 288 0 0 1 215 7c-35 19-66 43-95 76l-1 1a284 284 0 0 0-219-38c-13 2-9 20 2 21a502 502 0 0 1 138 41c1 5 3 9 8 12 12 10 17 23 17 39-19 31-35 64-49 98a64 64 0 0 1-60 14c-34-10-58-39-75-73-6-31-6-63-17-93-3-8-12-9-17-2l-5 8c-5 0-8 3-8 8l-4-3c3-6-2-15-9-17-124-18-243 47-327 133a585 585 0 0 0-156 365c-12 153 23 305 79 446 30 75 65 148 102 218 38 71 83 140 118 212 40 84 72 191 20 276-36 57-112 84-164 54h5c46-1 103-24 116-71 6-20-15-36-33-26-28 14-47 37-80 40-32 4-75-7-99-30-8-9-24 2-17 13 8 14 18 27 28 38 44 124 201 115 271 21 99-134 4-300-59-424-148-292-346-646-184-976a480 480 0 0 1 290-246c-14 14-27 29-39 45a714 714 0 0 0-267 473c-16 128 3 260 53 379 55 130 154 228 233 343 45 66 82 137 98 215 9 47 13 108-9 153-14 21-32 39-54 56-24 18 6 48 29 39 45-20 71-58 84-103a384 384 0 0 0 39-123c22-141-26-297-130-393l16 8c21 31 69 41 106 39 22-2 28-32 5-39-27-9-55-19-81-32 0-4 1-10 5-16 10-17 35-18 52-17 10 0 21-9 21-20-3-36-22-59-46-84-38-41-64-80-66-138 0-5-1-9-3-12 24-28 39-57 69-78 20-14 51-23 57-50l2-10c25 19 61 34 70-10 2-14-5-28-7-41l-1-26c5 26 13 50 17 77 1 10 16 7 17-2l5-37 4-1c11 5 27 2 34-9 22-9 44-25 63-38a881 881 0 0 0 344-470c18-64 34-139 23-206 53 87 82 196 89 297 5 62 2 125-4 188-4 38-15 82-18 123-4 7-4 15-1 21 0 14 2 28 5 41 3 15 26 18 34 5 9-16 16-34 21-54 16-14 31-30 44-48 5 5 14 6 20-1 41-48 66-106 87-165 6-18-16-27-28-18l3-21 5-44c4-44 1-89-8-132a853 853 0 0 1 70 234c9 52 7 105 19 156 4 20 37 21 41 0 22-101-11-227-44-323m346 91c-7-13-22-16-34-11-26-51-57-99-92-145l-4-6c-18-23-59 7-42 31 20 28-25 20-35 15-13-7-23-21-32-32l-64-84c-40-50-82-102-133-142-2-2-6 1-5 4 22 57 58 110 93 161 29 42 59 97 100 130 17 14 40 24 63 25 37 104 61 212 71 322 2 22 30 28 38 6 5-14 20-36 32-21 4 7 5 29 6 36l13 74c4 26 39 21 47 1 45-119 35-251-22-364" fill="#eaa87c"/><path d="M1388 650c-53-58-137-75-211-84-10-1-12 15-3 17 74 16 134 58 202 86 11 5 19-11 12-19m-240 1034c-10-4-15-12-15-23 7-5 7-19 0-24-32-28-58-56-73-97-11-28-12-57-15-86a252 252 0 0 0-5-28c4-25 16-48 33-68 13-16 33-24 47-37l17 11c16 9 37-14 21-27a355 355 0 0 1-130-214c-20-101-8-209-2-311 0-5-7-6-8-1a740 740 0 0 0-21 333c14 66 45 136 95 184a148 148 0 0 0-72 141c-68 4-119-91-140-145-25-65-25-127-26-195 0-5-6-5-8-1-33 80-12 182 27 256 21 40 82 134 140 123-8 64 35 140 84 178-10 23 15 48 39 58 5 2 8 2 12 0 8-3 10-13 6-20-1-3-3-5-6-7m-7 78c-32-3-59-4-88-21-23-14-44-33-64-50-41-34-91-74-114-123-3-8-15-1-11 7 30 67 69 114 124 164 42 38 98 78 158 61 21-6 17-36-5-38" fill="#e27773"/><path d="M834 910c31-47 68-90 108-129 40-38 88-66 127-104 4-4 0-11-5-9-104 28-196 134-254 219a739 739 0 0 0-123 322 740 740 0 0 0 253 646c16 13 40-10 24-24a719 719 0 0 1-244-609c11-111 52-219 114-312m146 954c-13 0-13 20 0 21 13 0 14-21 0-21m-148 393c-18 6-33 19-52 23-21 5-48 3-67-8-10-6-18 9-9 15 24 18 46 28 77 25 24-2 55-11 66-35 5-10-2-25-15-20" fill="#e27773"/><path d="M950 2188c-2-11-18-9-18 2-1 59 0 127-63 154-57 25-123 2-178-17-5-2-9 7-4 10 65 33 142 66 210 22 56-37 64-111 53-171m-12-64c-12 0-12 19 0 19s13-18 0-19m227 4c-2-13-20-14-21 0-7 75-23 141-71 202-5 5 2 13 8 8 55-54 93-131 84-210m-99-1512a591 591 0 0 0-315 165 503 503 0 0 0-154 335c-10 146 27 296 75 433 22 66 50 131 80 194 32 65 64 139 111 195 9 10 25-3 19-14-30-62-71-119-102-180-30-61-56-124-78-188-45-128-82-266-80-403 2-134 50-258 148-351 42-40 89-72 140-99 51-28 108-45 160-71 8-4 5-17-4-16M900 1958c-11 0-12 18 0 18s12-18 0-18m985-849v-1l4-16 8 3-12 14m85-123c-13 23-27 46-42 68l-19-3-17-7a816 816 0 0 0-41-358c-4-10-19-6-16 4a869 869 0 0 1 30 268c-8-45-11-91-6-136 1-7-11-7-12 0l-3 31c-8-55-20-108-36-161-18-57-46-107-73-161-5-10-20-1-15 9l1 3c-3-1-7 0-7 4a880 880 0 0 1-153 436 779 779 0 0 1-258 230c58-58 103-136 144-206 45-79 82-164 113-250 4-10-11-14-15-5a1975 1975 0 0 1-152 279c-2-5-10-7-14-1-43 62-95 125-129 194-1-26-2-51-1-77 4-77 19-152 44-225 48-143 138-272 244-379 4-4-1-12-7-8a731 731 0 0 0-269 371l-3 9a337 337 0 0 1-153-257c-1-10-15-7-16 2a303 303 0 0 0 160 284c-18 62-30 125-34 190-5 75-6 161 24 232 4 11 21 5 21-5-1-32-4-64-6-95h4c64-13 130-66 180-106 57-46 108-101 151-160a733 733 0 0 0 136-449 1065 1065 0 0 1 80 598c-4 23-9 43-6 66 2 12 19 12 25 3l9-17c4 1 9 0 13-5l11-16c6 2 13 2 19-4 23-29 45-58 66-88 29-18 51-59 56-89 3-16-18-29-28-13m96-98c-22-85-59-163-107-237-7-9-22-1-16 9 41 74 72 154 93 236 20 80 21 159 32 240 1 10 18 10 19 0 15-80-1-169-21-248m221 43c-24-72-62-134-106-195-6-9-20-1-14 8a680 680 0 0 1 115 291c5 35 4 71 11 105 3 12 23 13 25 0 11-66-10-146-31-209m119 117c-1-11-19-7-17 5 4 38 3 78 0 118-7 4-8 16-1 21l-2 24c-4 3-6 7-4 12l3 8c6 19 33 17 34-4 5-63-4-121-13-184" fill="#e27773"/><path d="M1184 697c-3-8-8-15-15-20l3-6c6-14-11-25-23-23-46 7-37 96 11 93 21-2 30-25 24-44m53-42c-14-1-15 21-1 21s14-21 1-21m1219 195c-27-107-124-208-209-272a555 555 0 0 0-330-121c-8 0-10 13-2 14a671 671 0 0 1 431 238c37 47 60 99 91 149 6 9 21 4 19-8m4 45c-11-1-12 17 0 18 11 0 12-18 0-18M1129 564a310 310 0 0 0-290-2 484 484 0 0 0-232 214c-118 219-83 488-21 718 38 140 90 280 162 406 8 13 28 2 21-12-129-264-243-570-212-869 14-133 71-273 171-364 19-17 39-32 61-45 1 11 10 20 22 21 44 4 93-13 121-50 5-6 3-15-2-22 66-10 133-5 193 20 8 3 14-11 6-15M814 1937c-7 0-7 11 0 11s7-11 0-11" fill="#fde6c2"/><path d="M1012 576h-3c-11 2-11 21 0 23l3 1c8 1 16-4 16-12 0-9-8-13-16-12m51 338 1-1c16-5 16-26 1-31-10-4-20-3-29 2l-3 1-8 8c-6 6-11 14-13 22-6 23 3 58 20 75 8 7 18 10 28 6 13-6 15-19 13-31-1-17-4-35-10-51m53 15c-4 0-4 5 0 5 3 0 3-5 0-5m457-212c-10 1-15-17-20-22-4-6-10-10-17-12-15-4-29 2-41 11-6 4-10 12-17 16-4 7-9 7-16 2l6-15 22-69c2-5-5-7-7-3-15 27-42 55-49 87-5 21 10 40 32 39 11-1 21-6 29-13 13-12 24-33 40-14 13 15 27 32 46 14 8-7 3-22-8-21m75-2c-12 0-12 19 0 19 12 1 13-19 0-19" fill="#fde6c2"/><path d="M2088 1941c-11-1-18 11-16 20 12 31-3 44-46 38-6-11-10-23-13-36-3-9-12-12-21-8-45 21-93 29-142 32-10 1-14 16-3 18l12 2 2 5c52 60 98 126 139 194 2 4 8 8 13 8 43-3 82 1 120-22 30-17 50-46 55-80 10-73-21-160-100-171" fill="#ebc57e"/><path d="M2103 1942c-25-7-38 22-24 40 2 3 2 5 3 11 1 4 2 11 1 16-2 9-16 11-23 7-17-9-32 17-15 25 13 8 25 18 42 17 17 0 34-10 42-26 13-28 8-80-26-90m16 191c-50 22-106-9-136-49-27-35-36-80-62-115-4-5-13-4-13 4v3c-27-7-62-2-56 34 3 22 27 29 40 42 20 18 31 44 44 67 24 43 58 82 109 92 43 9 97-4 104-54 3-18-12-31-30-24" fill="#eaa87c"/><path d="m1903 2028-13-26c0-2 0-5-2-7-2-7-12-9-17-5-3 1-5 3-8 3-10 0-10 14-1 15h1l1 6 4 9c4 5 8 7 15 8l1 2c2 5 6 9 12 7 4-1 9-7 7-12m175 148c-18 0-35 7-53 3-19-3-38-18-44-36-4-10-20-6-16 4 8 26 22 48 48 59 25 11 57 11 75-12 5-7-2-18-10-18m26-147v-1c5-5 6-13 2-19-4-5-13-8-19-4l-23 16c-5 3-7 8-5 13s8 9 13 7l6-2c2 2 4 4 7 4 5 2 10 1 14-3l3-4 2-6v-2 1" fill="#e27773"/><path d="M2104 2028c0 2 2-1 0 0m0 0z" fill="#e27773"/><path d="M1879 2121c33 99 69 199 86 302 2 11 19 9 17-2-17-105-54-206-87-306-4-11-19-4-16 6m495-993c1 121-18 238-38 357-2 10 15 13 17 2 20-120 39-239 38-361 0-11-17-9-17 2" fill="#691b1a"/><path d="M2336 1499c33 129-9 254-113 337-115 92-273 121-413 152-10 2-9 19 2 17 153-35 329-66 447-178 94-88 124-211 93-334-3-11-19-4-16 6M1073 663a683 683 0 0 0-209 433c-1 11 16 13 16 3 11-167 92-307 206-425 8-8-5-18-13-11m812-228a646 646 0 0 0-670 111c-8 8 5 18 13 11a630 630 0 0 1 650-107c10 5 17-11 7-15m-205 813c-28-38-82-59-115-11-8 11-15 24-20 37 19-8 41-8 50 16 13 35-19 110-64 77-6-5-9-12-12-19 11 38 5 77 31 110a87 87 0 0 0 139-2c40-54 30-131 2-190-3-6-6-12-11-18m573 45c-2-22-7-44-17-62-27-54-100-70-125-5l-6 17c9-6 19-8 30-4 19 7 25 25 22 43 2 18-5 37-18 47-14 12-30 10-42 1-2 25 0 52 9 78 15 47 78 63 110 25 29-35 41-90 37-140m-851-254c53-98 144-147 248-173 27-7 23-49-5-48-123 2-228 92-277 201-10 22 22 43 34 20m926-104c-12-37-32-69-63-93-30-22-74-45-112-35-23 6-20 35 0 43 28 11 58 11 85 27 29 17 52 38 70 66 6 10 24 4 20-8m-1172 882c42 54 93 94 155 122 10 4 17-11 7-16-60-26-108-64-148-116-6-9-20 1-14 10m371 178c16 0 35 6 51 9l52 11c11 2 13-15 3-17-20-5-41-9-61-12-15-3-31-8-47-8-11 0-9 16 2 17" fill="#691b1a"/><path d="M1496 1384c0-78 21-166 81-221 67-60 153-26 191 46 14 26 56 9 48-19-29-106-157-152-250-95-82 50-159 209-95 296 7 10 25 8 25-7m822-80c53-53 14-165-39-204-67-51-167 13-198 77-11 22 17 49 35 28 31-36 103-95 145-42 15 19 24 42 30 67 5 23 1 46 7 68 2 9 13 12 20 6m-772 208c68 54 157 38 209-29 6-9-7-20-14-11-45 60-124 75-184 27-9-6-19 7-11 13m563-45c51 64 160 55 187-27 3-11-12-18-16-7-22 69-113 79-157 24-7-8-21 1-14 10" fill="#691b1a"/><path d="M1440 1224c20-103 115-190 223-178 7 0 7-11 0-12-115-16-212 79-229 188-1 4 6 6 6 2m718-151c73-58 158-1 187 73 3 7 14 4 12-3-26-88-128-143-205-75-4 3 2 9 6 5m-845 707c-11-36 4-76 37-94 9-5 3-21-7-15a96 96 0 0 0-45 115c3 10 19 4 15-6m-121-43c25-39 74-66 120-68 10 0 9-17-2-16-50 1-104 31-131 73-6 9 7 20 13 11" fill="#691b1a"/><path d="M1277 1666c5-15 11-29 18-43 4-8 29-58 42-29 4 9 1 27 1 36v41c0 11 17 14 17 3 1-22 0-44-1-65 0-16 0-35-18-41-16-5-30 6-39 18-15 22-27 48-35 73-3 11 12 18 15 7" fill="#691b1a"/><path d="M1361 1674c9-6 32-28 44-20 13 10-3 41-7 52-4 10 11 17 15 7 8-20 24-55 3-72-21-16-49 8-65 20-9 6 1 20 10 13m-84-22c-11-20-21-45-37-62-8-9-20-16-31-9-13 8-15 28-14 42 3 20 14 38 17 59 1 10 18 9 17-2-4-22-24-52-16-74 8-21 20 2 26 12l25 44c5 10 19 0 13-10" fill="#691b1a"/><path d="M1224 1677c-11-17-58-79-84-56-12 10-7 32-2 44 9 23 27 41 41 61 6 9 19-1 13-10l-25-35c-5-6-9-13-12-20-2-5-8-19-5-25 8-14 55 43 60 51 7 9 20-1 14-10" fill="#691b1a"/><path d="M1185 1714c-24-5-69-33-92-14-11 8-10 20-1 29 17 16 42 29 61 42 9 6 20-7 11-13l-40-27c-1-1-16-10-17-12-2-12 12-7 16-6 21 4 39 13 59 18 11 3 14-14 3-17" fill="#691b1a"/><path d="M1155 1772c17 37 30 87 74 99 35 9 79 3 109-18 8-6-2-20-10-13-26 18-73 25-102 12-32-14-42-58-55-86-4-10-20-4-16 6m239-61c10 20 13 43 10 65-4 28-21 40-46 50-10 5-3 21 7 16 24-11 46-24 53-51 8-28 5-60-8-86-5-10-21-3-16 6m-453 187c28-63 68-117 121-161 8-7-2-21-10-14-55 46-98 102-126 168-4 10 11 17 15 7m78-36c25-42 58-79 97-108 8-7-1-21-10-14-42 32-76 70-102 115-6 9 10 16 15 7" fill="#691b1a"/><path d="M1362 1840c54 70 126 129 197 182 9 7 20-6 11-13a998 998 0 0 1-195-179c-6-9-20 1-13 10m-109 38c40 48 94 87 145 123 9 6 19-7 11-13-50-35-104-73-142-120-7-9-21 1-14 10m232 205c-31 97-54 197-70 298-1 11 15 14 17 3 16-100 38-198 68-295 3-10-12-17-15-6m87-1574c-167 103-260 284-301 471-19 90-25 179-26 270-1 72-5 171 60 218 9 6 20-7 11-13-66-47-55-154-54-225 2-87 9-173 28-259a695 695 0 0 1 292-448c9-6-1-20-10-14m-398 1136c11 2 22 2 32 2 11-1 9-18-2-17-9 1-18 0-27-1-11-2-14 15-3 16m-28-26c-57-29-90-90-92-153-1-77 62-154 144-125 10 4 17-12 7-15-73-26-145 22-163 96-20 82 22 174 97 212 10 5 16-10 7-15" fill="#691b1a"/><path d="M1107 1423c61 14 93 70 121 120 5 10 19 0 14-10-31-55-66-112-132-127-11-2-13 15-3 17" fill="#691b1a"/><path d="M1192 1480c-21 0-42 2-62 5-11 2-9 19 2 17 20-4 41-5 62-6 11 0 9-16-2-16m-120-790c-12-38 27-65 52-86 17-15 56-59 80-49 11 4 18-12 7-16-39-15-84 39-110 62-29 26-58 54-45 95 3 10 19 4 16-6" fill="#691b1a"/><path d="M1157 552c-124-78-273-41-386 39a566 566 0 0 0-216 357c-74 348 38 701 201 1008 39 73 81 148 92 232 8 66-3 144-88 124-10-3-13 14-2 17 102 23 118-76 105-155-10-63-38-121-67-178-42-81-82-162-118-247-73-173-125-353-128-542-3-162 18-337 108-475 98-150 318-274 488-167 9 5 20-8 11-13" fill="#691b1a"/><path d="M1159 2127a297 297 0 0 1-250 285c-125 17-249-56-265-186-1-11-18-9-16 2 16 135 141 214 272 202a313 313 0 0 0 276-301c0-10-17-13-17-2m-109-321c43 66 74 136 93 212 3 11 18 4 16-6-20-77-52-149-95-216-6-9-20 1-14 10m1033 160c95-53 103 123 77 174-32 62-93 77-157 62-10-3-13 14-2 16 88 21 173-21 190-116 12-71-25-202-118-149-9 5 1 19 10 13" fill="#691b1a"/><path d="M1996 1951c11 39 37 94 77 110 35 13 60-19 64-51 1-11-16-14-17-3-2 17-8 33-26 37-19 5-34-12-46-27-17-21-29-46-36-72-3-10-18-4-16 6" fill="#691b1a"/><path d="M2071 1964c7 12 7 26 2 39s-15 21-28 12c-9-6-19 7-10 13 44 30 71-36 52-70-5-10-21-4-16 6M1895 451c345-18 687 380 580 717-4 11 12 18 15 7 111-349-238-759-597-741-11 1-9 18 2 17" fill="#691b1a"/><path d="M1882 482c264 113 308 430 225 675-3 10 12 17 16 7 47-140 61-294 9-435a455 455 0 0 0-243-263c-10-4-17 11-7 16m-158 63a991 991 0 0 1 61 637c-2 11 15 14 17 3 51-216 29-444-63-647-4-10-20-3-15 7" fill="#691b1a"/><path d="M1718 537c17 307-196 591-457 733-9 5-3 21 6 15 268-146 486-435 468-750-1-11-18-9-17 2m156 7a478 478 0 0 1 80 521c-28 59-73 136-143 147-11 1-9 18 2 16 60-9 99-58 129-107a494 494 0 0 0-55-587c-7-8-20 2-13 10" fill="#691b1a"/><path d="M2003 869c48 86 58 176 32 271-3 10 13 13 16 2 28-99 16-193-34-283-6-9-19 1-14 10M632 2231c45 29 86 55 142 45 43-7 77-24 96-65 5-10-11-17-15-7-18 39-55 54-96 57-45 5-80-20-116-43-9-6-20 7-11 13m432-1566c-110 224-99 515 120 666 9 6 20-7 11-14a404 404 0 0 1-171-255c-31-134-4-268 56-390 5-9-11-16-16-7m94-56c86-2 168 32 240 76 9 6 20-7 11-13-76-47-162-82-253-80-10 0-8 17 2 17m77-57c37-31 97-36 144-36 57-1 111 10 163 31 10 4 17-11 7-15-55-22-112-34-172-33-50 1-112 6-152 39-8 7 2 21 10 14m-368 515c-10 160-28 368 176 401 11 2 13-15 3-17-194-31-171-232-162-381 1-11-16-14-17-3" fill="#691b1a"/><path d="M1099 666c32-45 74-80 124-104 10-5 4-21-6-16-53 25-97 62-131 109-6 9 7 20 13 11m1168 55c49 56 89 119 109 191 22 77 29 197-38 255-8 7 2 21 10 14 62-54 67-154 55-230-15-91-62-172-122-240-7-8-21 1-14 10m-108 367 19-31c6-11 16-35 28-35 11 0 10 4 15 13l10 18 19 35c5 10 21 4 16-6-12-21-22-43-35-64-5-9-11-19-23-19-12-1-20 9-26 18l-39 64c-6 10 10 17 16 7" fill="#691b1a"/><path d="M2311 1123c5 13 7 26 6 40-1 11 15 14 17 3 1-17-1-33-8-49-4-10-20-4-15 6m86-83c14 34 20 69 15 106-1 11 16 14 17 3 5-40-1-79-16-115-5-10-21-4-16 6m69 151c-4 24-22 42-46 48-10 3-4 19 6 16 30-7 52-32 57-61 2-11-15-14-17-3m-1296-28c-1 95 15 276 129 306 10 3 13-14 2-17-62-16-83-88-97-143-13-48-18-98-17-148 0-11-17-9-17 2M678 2290c9-8 19-15 27-25 1-1-1-4-3-3-10 7-18 17-26 26-2 2 1 4 2 2m18 4c8-8 17-16 24-25 2-3-2-5-4-3-9 7-16 16-23 25-2 2 1 5 3 3m11 9c10-10 21-20 29-32 1-2-2-3-3-2-11 9-19 21-28 31-2 2 1 5 2 3m16 8c12-11 25-24 30-40 1-3-3-4-4-2-10 13-17 27-28 40-1 1 1 3 2 2m21 9c11-15 25-33 29-52 0-2-3-4-5-1-5 7-8 17-13 26l-15 25c-2 2 2 5 4 2m23 3c10-19 20-39 26-60 1-3-4-5-6-1-8 19-15 39-25 58-1 4 3 6 5 3m19-8c10-21 20-41 28-62 2-4-5-7-6-3-10 20-17 42-25 63-1 2 2 4 3 2m22 3c7-20 16-40 22-60 1-4-5-7-7-3-9 20-15 41-22 61-1 4 5 6 7 2m28-23 9-45c1-4-6-6-7-2l-8 46c-1 4 5 5 6 1m1227-273c13 9 32 19 47 17 4-1 3-5 0-7l-21-5c-8-2-16-6-23-10-3-2-6 3-3 5m14-14c11 11 27 23 44 23 4 0 5-6 1-7l-23-8c-7-3-13-7-19-12-2-1-5 2-3 4m12-11c7 5 14 8 22 10 6 2 15 4 20 1 2-2 3-4 1-6-5-4-12-3-18-5-8-1-15-3-22-6-4-1-6 4-3 6m-6-25c11 7 27 16 40 13 2-1 3-6 1-7l-18-4c-7-1-13-4-19-7-4-2-7 3-4 5m5-7c9 1 20 5 29 3 2-1 3-5 1-6-9-4-21-3-30-4-5-1-5 7 0 7M1729 534c-5 174-24 340-115 492a645 645 0 0 1-350 282c-4 1-2 7 2 6 326-85 493-468 467-780 0-2-4-3-4 0" fill="#691b1a"/><path d="M1666 601c-82 255-177 516-418 660-4 3-1 10 4 7 249-126 340-420 416-667h-2" fill="#691b1a"/><path d="M1609 538c-218 187-313 470-364 744 0 5 7 7 8 2 51-273 146-552 361-741 3-3-2-7-5-5" fill="#691b1a"/><path d="M1572 674c-106 198-219 392-328 589-2 3 4 6 6 3 117-191 222-391 326-590 1-2-3-5-4-2m158-131c46 205 93 412 31 619-1 4 5 6 7 2 63-209 12-416-35-622 0-2-3-1-3 1" fill="#691b1a"/><path d="M1767 540a616 616 0 0 1 43 672c-1 2 2 5 4 2 131-204 99-489-44-676-2-2-4 0-3 2" fill="#691b1a"/><path d="M1840 568c84 71 89 193 93 295 6 131-12 248-112 340-2 1 0 5 2 3 103-71 121-220 117-335-4-106-9-233-98-305-1-1-4 1-2 2m136 19a560 560 0 0 1 112 549c-1 3 4 5 5 2 71-186 26-412-114-554-2-3-5 1-3 3" fill="#691b1a"/><path d="M2078 1006c5 40 1 78-2 119-1 3 4 3 5 0 8-39 5-80 0-120 0-1-3-1-3 1m67-386c137 144 260 315 209 523-1 4 5 5 6 2 68-202-80-393-210-529-3-3-8 1-5 4" fill="#691b1a"/><path d="M2241 827c75 101 95 216 78 339-1 3 5 4 5 0 28-117-9-246-80-341-2-2-5 1-3 2M1054 687a504 504 0 0 0-134 378c10 117 59 231 167 289 4 2 8-4 4-7-109-58-157-176-164-295-8-135 47-259 131-362 2-2-1-5-4-3m35-35c-43 132 63 316 193 358 2 0 4-3 2-4-60-36-112-71-148-133-40-69-59-141-44-220 1-3-3-4-3-1" fill="#691b1a"/><path d="M1105 659c1 63 22 124 55 178 31 51 71 108 131 128 2 0 4-3 1-5-113-64-162-179-184-302 0-1-3-1-3 1m86-93a446 446 0 0 1 317 4c-96-51-220-51-317-6v2" fill="#691b1a"/><path d="M1191 569c95-20 175 2 264 37 2 0 3-2 1-3-89-36-171-65-266-37-2 1-1 3 1 3m-347 553a679 679 0 0 0 14 345c39 101 160 179 268 148 4-1 2-6-1-6a239 239 0 0 1-272-183c-23-97-21-205-5-303 1-3-4-4-4-1" fill="#691b1a"/><path d="M817 1202c2 124-18 245 68 346 59 70 165 139 258 94 3-1 1-5-2-4-104 33-208-32-268-116-67-96-48-210-52-320 0-3-4-3-4 0m1063 384c44 14 96 19 141 3 10-3 4-19-6-15-40 14-88 9-128-3-10-3-17 12-7 15" fill="#691b1a"/><path d="M1879 1599c-7 58-14 117 0 174 6 27 22 83 54 92 34 9 40-40 46-62 18-68 31-136 42-205 2-11-15-14-17-3a2096 2096 0 0 1-34 174c-3 13-9 63-19 70-38 28-59-82-61-102-5-45 1-90 6-135 1-11-15-14-17-3" fill="#691b1a"/><path d="M1925 1598c33 16 53 51 61 85 3 11 19 5 16-6-10-39-33-76-70-94-10-5-17 11-7 15" fill="#691b1a"/><path d="M2004 1580c-17 8-35 9-53 8 0 3 0 5 2 7a159 159 0 0 1 28 35v1c1 7 2 18 10 21 3 1 6 1 8-1 4-1 8-4 10-8 6-16-1-39-2-56l-3-7M865 1049c-159 276-48 723 302 772 11 2 13-15 2-17-339-48-442-482-289-748 6-10-10-16-15-7m544 842c20 13 8 64 0 81-8 15-23 30-40 18-11-7-17-20-19-32-1-11-18-9-16 2 5 34 41 70 74 42 19-17 25-46 27-70 1-19 3-43-15-55-9-5-20 8-11 14" fill="#691b1a"/><path d="M1360 2007c42 34 89 62 139 82 10 4 17-11 7-15-49-20-94-47-136-80-8-7-19 6-10 13m227 4c31 49 72 108 137 107 51-1 108-53 125-100 4-10-11-17-15-7-16 43-74 95-122 90-53-7-85-58-112-99-6-10-19 0-13 9" fill="#691b1a"/><path d="M1846 2017c72 56 122 146 164 225 5 9 21 3 16-6-44-82-95-174-169-232-9-7-19 6-11 13" fill="#691b1a"/><path d="M2010 2236c-11 25-44 43-69 50-11 2-4 18 6 15 30-7 65-30 79-58 4-10-11-17-16-7" fill="#691b1a"/><path d="M1978 2285c13 29 24 58 35 88 3 11 19 4 15-6-10-30-22-59-34-88-5-10-21-4-16 6m-158-284c7 2 14 6 18 12 7 9 21-1 14-10s-18-16-30-18c-10-2-13 14-2 16" fill="#691b1a"/><path d="M1809 2007c8 3 14 11 14 20 1 11 18 9 17-2-1-15-11-28-24-34-10-4-17 12-7 16" fill="#691b1a"/><path d="m1819 2007 12 15c3 4 8 5 12 2 4-2 5-8 2-12l-13-15c-3-4-8-5-12-2-3 3-4 8-1 12m-125 184c-1 24-5 50-4 74 0 9 7 18 16 11s-1-21-10-14l-1 1 9-1h-2l5 6c-2-11 1-25 2-37l2-37c1-11-16-14-17-3m30-8c4 27 4 55-2 82-2 11 15 13 17 3 6-29 6-58 1-87-1-11-18-9-16 2" fill="#691b1a"/><path d="m1697 2232 31 2c10 1 13-16 2-17l-31-2c-11-1-13 16-2 17m78 5c1-7 3-26 10-30 3-2 3 6 3 9v18c0 3-3 28-7 27-3-1-6-14-6-16-1-7 0-13 2-20 3-10-12-17-15-7-6 17-7 50 13 59 21 10 28-24 30-38s3-48-16-52c-22-4-28 33-31 47-2 11 15 14 17 3M1085 622c-92-14-189 11-267 63a446 446 0 0 0-171 250c-70 225-30 467 56 681 46 115 108 222 177 325 2 3 7 0 5-3a1539 1539 0 0 1-253-586 925 925 0 0 1 1-338c21-107 62-216 144-290 84-75 196-109 308-99 2 0 2-3 0-3M939 2125c37 87 38 239-84 253-46 6-95-7-137-25-50-22-95-60-100-117 0-3-4-3-4 0 3 55 44 95 91 117 47 23 104 38 156 30 122-18 120-171 81-259-1-3-4-1-3 1" fill="#691b1a"/><path d="M1051 671c-171 62-273 237-322 403a714 714 0 0 0-24 308c15 95 56 181 109 261 62 93 137 177 198 271 1 3 6 0 4-3-101-157-249-292-296-480s3-400 105-561c55-86 130-160 226-196 2-1 1-4 0-3m50 1471c21 47 31 98 31 149 0 27 0 59-25 75a76 76 0 0 1-64 6c-3-1-4 3-2 4 38 16 85-1 94-44 13-62-5-134-31-191-1-2-4-1-3 1m824-168c-6 86 53 202 145 216 39 5 78-9 100-42 27-43 21-99 5-144-1-2-4-1-3 1 10 46 20 97-7 140-24 37-70 47-112 35-81-24-123-128-125-206 0-2-3-2-3 0" fill="#691b1a"/><path d="M1138 586c-117-80-276-58-395 5-66 36-127 86-169 148s-67 135-87 206c-76 273-48 578 93 825 41 73 93 135 148 197 67 75 136 164 122 272-1 3 5 5 6 1 22-159-127-267-211-381a987 987 0 0 1-169-381c-30-140-32-286-8-427 27-151 78-308 204-406 130-101 316-144 464-56 2 2 4-2 2-3m833 1378c5 82 61 159 140 184 37 12 81 10 103-26 23-37 9-81-18-112-1-1-3 1-2 2 28 32 42 82 9 117-32 35-85 21-121 1-61-33-102-97-107-167 0-2-4-2-4 1M1142 564c24-63-25-132-81-157-61-28-133-8-176 43-1 1 1 3 2 2 42-47 110-66 169-42 56 24 104 91 84 153l2 1" fill="#691b1a"/><path d="M1027 742c-40 39-58 92-68 145-11 65-16 133-10 199 11 107 63 226 171 267 2 1 4-2 2-3-108-49-160-158-169-272-5-61-1-123 9-183 8-56 26-111 66-151 1-1 0-3-1-2" fill="#691b1a"/><path d="M1070 662c-31 88-27 185 14 269 35 71 110 152 198 143 2 0 1-2 0-2-192-12-264-252-211-409 1-1 0-1-1-1" fill="#691b1a"/><path d="M1528 536a831 831 0 0 0-312 528c-11 71-16 147 2 217 18 69 67 134 140 145 2 0 3-3 1-3-161-31-158-236-138-361a840 840 0 0 1 307-526m189 18c21 106 36 214 45 322 8 100 20 209-24 302-1 2 1 3 2 2 47-89 34-199 27-296a2637 2637 0 0 0-50-330m222 61c63 83 102 184 102 290 1 107-38 210-104 295-1 2 2 4 3 2a465 465 0 0 0-1-587m205 94c93 125 168 273 144 433-1 4 4 5 5 2 27-161-52-313-147-437-1-1-3 0-2 2" fill="#691b1a"/><path d="M2128 493a896 896 0 0 1 316 245c77 104 135 247 102 377-18 73-69 133-141 153-3 1-2 4 1 4 57-13 103-57 129-109 30-62 31-134 18-201a611 611 0 0 0-216-343 851 851 0 0 0-209-126m-167 1470c-5 67 25 132 80 171 41 29 116 56 155 11 2-1 0-3-2-2-44 45-123 12-163-22-47-39-69-98-67-158h-3M1081 633c-90 8-178 54-244 114a503 503 0 0 0-144 247 958 958 0 0 0-26 325c9 101 44 197 93 285 58 104 133 197 207 289 2 2 5 0 3-2-123-153-254-318-290-516a908 908 0 0 1 6-323c18-99 56-194 124-269 73-81 167-125 271-147 2 0 1-3 0-3m0 1517c13 38 23 77 28 117 5 38 12 104-41 111-3 0-2 5 0 4 41-2 51-44 50-78-3-53-15-106-34-155-1-2-4-1-3 1m1107-101c125-86 285-35 335 108 19 56 66 247-44 234-11-1-14 16-3 17 128 14 88-180 65-249a234 234 0 0 0-363-124c-9 6 1 20 10 14m-90 310c-26-44-30-92-21-141 2-11-14-14-16-3-10 54-5 106 23 154 5 9 19-1 14-10" fill="#691b1a"/><path d="M2321 2114c-7 2-13 6-14 14 0 4 2 8 6 10 4 1 9-1 10-5 1-1 3-4 2-5-1 1-3 0-4-1v2c0 4 0 10-2 12l3-2h4c-2 0-3-3-3-5l-1-4h-1c-2 0-2-1-1 1l1 2c1 2 2 7 1 8-2 2-3-1-3-3 0-5 6-5 9-4 11 2 13-15 3-17-19-4-37 15-26 32 4 8 13 11 22 8s14-12 12-21c-1-9-4-18-13-22s-18 2-20 11c-3 9 1 20 7 26 8 8 19 5 23-5 3-10 5-26-5-32-10-7-20 2-23 12a5668 5668 0 0 1 15 5c4-1 8-5 7-10 0-4-5-8-9-7m123 29-1 1a502 502 0 0 1-7 1l-3-4c-3-7 7-3 8-6v-1l-1-2c0-2 0-1-1 1l-1 1h-1l1 1 1 2c1 0 1-4 3-4l2 1c1 0 2 3 1 4h-1l-1-1 1 1v1l-2 3 6-2 1 1h1v1-1c-1 1-1 1 0 0l-1 1h-3l1 1c-1 0 1-3-1-1-2 4 1 10 4 11 5 3 9 0 12-4 5-9-2-22-13-23-10-2-18 8-16 18 1 5 3 9 8 12 6 3 11 0 15-5 8-9 6-24-6-29-11-5-25 6-21 19 4 10 18 12 25 4 7-10-1-23-11-27-5-1-10-1-14 2-6 4-6 11-5 17 1 5 3 11 9 14 5 3 12 0 15-5 4-6 2-13-4-16-5-3-13-1-16 6-1 4 0 9 5 11 3 2 9 0 11-4m-131-71-12 10c-8 6 2 20 10 13l12-9c9-7-1-21-10-14m120 15 8 2c5 1 9-3 10-7 1-5-3-9-7-10l-8-2c-4-1-9 3-10 7 0 5 3 9 7 10m-18 115c-13 7-28 8-41 2-9-3-20-11-21-21-3-18 24-28 38-27 13 0 27 6 34 16 9 12 0 22-10 30-10 6 0 19 9 13 19-12 29-33 15-53a64 64 0 0 0-61-22c-25 4-53 29-38 56 16 31 57 35 84 19 10-5 0-19-9-13" fill="#691b1a"/><path d="M2354 2183c26 7 53 6 79-1 5-2 2-9-3-8-25 7-50 7-75 0-5-1-6 8-1 9" fill="#691b1a"/><path d="M1721 1568c-3-15-8-30-13-43 17-11 33-25 47-42 4-7-2-14-8-14h-1a414 414 0 0 0 33-243c10 11 23 15 37 15 27 0 58-18 84-40a328 328 0 0 1-71 326c0-2-2-4-4-4l-3 1c-29 21-64 36-101 44m-349-134a281 281 0 0 1-22-108l12-5c-2 38 3 75 15 109l-5 4m42-25c1-29 0-56 10-86 5-14 10-28 18-42l9-5a147 147 0 0 0 21 116 234 234 0 0 0-58 17m347-302a173 173 0 0 0-110-37 686 686 0 0 0 36-66c30 5 57 14 82 28l-2 31c-1 15-3 29-6 44" fill="#fde6cb"/><path d="M1636 1609c-65 0-129-23-180-63a271 271 0 0 1-94-225l-12 5 2-43c44-20 85-46 122-77-11 22-19 46-23 70l-9 5c-8 14-13 28-18 42-10 30-9 57-10 86v15c24 50 62 94 111 121 37 20 82 30 128 30 23 0 45-2 68-7a270 270 0 0 0 104-45c2 0 4 2 4 4a253 253 0 0 1-193 82m180-368c-14 0-27-4-37-15l-2-7 12 3 12-2 3 3c1 3 3 6 7 6l2-1h8c5 0 9-1 13-5 23-7 43-21 60-39l6 17c-26 22-57 40-84 40m-22-99-15-19c6-26 10-51 13-77l15 12c-3 28-7 56-13 84m-21-24-8-8c5-24 8-50 9-75l12 7c-3 25-7 50-13 76m-189-32 25-38a181 181 0 0 1 57-3l-15 25c-23 1-46 6-67 16m183-23 2-31-2 31m-98-23c-1-3-2-6-6-6a187 187 0 0 0-45-1l17-31a281 281 0 0 1 52 2l-18 36" fill="#fab6b0"/><path d="M1636 1528c-27 0-55-9-79-29l-5-2c-5 0-9 5-9 10a173 173 0 0 1-62-110h2c6 0 11-3 12-8l6 1c5 0 9-3 10-9 5-68 23-145 83-186a120 120 0 0 1 91-19c29 6 46 31 73 36a25 25 0 0 0 11 0l8 7 2 7a414 414 0 0 1-33 243c-2 0-3 1-5 3-27 36-66 56-105 56m-117-180c11 38 5 77 31 110 18 23 44 34 69 34 26 0 52-12 70-36 40-54 30-131 2-190-3-6-6-12-11-18a87 87 0 0 0-67-39c-17 0-34 8-48 28-8 11-15 24-20 37 7-3 15-5 22-5 12 0 22 6 28 21 10 28-9 85-42 85-7 0-14-3-22-8-6-5-9-12-12-19" fill="#fff"/><path d="m1501 1390-6-1 1-5c0-78 21-166 81-221 24-21 51-31 76-31 32 0 64 15 88 40l-3 6c-1 1 0 2 1 2h1l3-6a159 159 0 0 1 26 38 27 27 0 0 1-11 0c-27-5-44-30-73-36l-23-3c-24 0-48 8-68 22-60 41-78 118-83 186-1 6-5 9-10 9" fill="#efecec"/><path d="M1821 1228h-5l18-5c-4 4-8 5-13 5" fill="#f1b38a"/><path d="m1804 1223-3-3 3-2v5m13-25-1-8c-2-9-6-17-9-25 6-31 12-62 15-93 12 11 23 23 32 37-10 30-23 59-37 89" fill="#ec8b81"/><path d="M1619 1492c-25 0-51-11-69-34-26-33-20-72-31-110 3 7 6 14 12 19 8 5 15 8 22 8 33 0 52-57 42-85-6-15-16-21-28-21-7 0-15 2-22 5 5-13 12-26 20-37 14-20 31-28 48-28 25 0 51 16 67 39 5 6 8 12 11 18 28 59 38 136-2 190a86 86 0 0 1-70 36" fill="#8d1e1d"/><path d="M1483 1397a16 16 0 0 1-12-6c-23-32-28-73-20-115 4-24 12-48 23-70 41-35 78-76 110-120a170 170 0 0 1 70-16c39 0 77 13 107 37-4 22-11 44-20 65-24-25-56-40-88-40-25 0-52 10-76 31-60 55-81 143-81 221l-1 5c-1 5-6 8-12 8m306-175-12-3a23 23 0 0 1-9-10c-7-13-15-25-25-35 10-20 17-42 22-64l8 8-12 44c0 2 2 4 4 4l3-2 11-41 15 19c-3 14-5 27-9 40-1 6 4 10 9 10 3 0 7-2 8-7l5-20c3 8 7 16 9 25l1 8-7 14c-3 1-5 3-6 6a30 30 0 0 1-15 4m-153 323c-31 0-62-11-90-33-2-1-3-3-3-5 0-5 4-10 9-10l5 2c24 20 52 29 79 29 39 0 78-20 105-56 2-2 3-3 5-3h1c6 0 12 7 8 14-14 17-30 31-47 42-23 13-47 20-72 20m-27-497 9-15a182 182 0 0 1 45 1c4 0 5 3 6 6 0 2-1 4-3 5a5 5 0 0 1-3 1 181 181 0 0 0-54 2" fill="#8d1e1d"/><path d="M1794 1192c-5 0-10-4-9-10a1019 1019 0 0 0 22-124l15 14a1003 1003 0 0 1-20 113c-1 5-5 7-8 7" fill="#8d1e1d"/><path d="m1357 1254 7-29c33-24 65-49 95-77-10 19-17 39-22 59a539 539 0 0 1-80 47m89-54c21-66 73-123 137-145a701 701 0 0 1-65 82c-22 23-46 44-72 63m100-143 38-48 30-5-20 34c-17 4-33 10-48 19" fill="#fde6cb"/><path d="m1354 1270 3-16a539 539 0 0 0 80-47l-3 14c-25 18-52 34-80 49m88-55 4-15c26-19 50-40 72-63-10 12-20 26-29 41l-47 37m88-92a569 569 0 0 0 53-68l15-5-31 45h-1c-12 7-24 17-36 28m64-85 20-34 13-2a690 690 0 0 1-19 33l-14 3" fill="#fab6b0"/><path d="M1424 1130c20-22 37-46 54-71a307 307 0 0 1 46-29c-30 36-63 70-100 100" fill="#f1b38a"/><path d="m1374 1197 11-25c14-13 27-27 39-42 37-30 70-64 100-100 11-5 22-10 33-13a947 947 0 0 1-183 180" fill="#ec8b81"/><path d="M1489 1178a302 302 0 0 1 41-55c12-11 24-21 36-28h1c-24 30-50 57-78 83m-55 43a221 221 0 0 1 25-73c31-28 60-59 87-91a191 191 0 0 1 62-22l-10 15-15 5a225 225 0 0 0-141 160l-8 6" fill="#8d1e1d"/><path d="m1364 1225 10-28c68-51 131-112 183-180l27-8a915 915 0 0 1-220 216" fill="#8d1e1d"/><path d="m1847 1200 3-10 7-10 7 1c4 0 8-1 12-5l10-13 2 5c-12 13-26 24-41 32" fill="#f2cd8d"/><path d="m1830 1207 3-6 3 1c3 0 7-2 10-6l4-6-3 10-17 7" fill="#f1b38a"/><path d="m1816 1211 4-7 2 3 1-1c23-15 41-35 56-57l7 14-10 13a14 14 0 0 1-19 4 168 168 0 0 1-11 16c-3 4-7 6-10 6l-3-1-3 6-14 4m5-9c16-26 30-54 40-83l13 21c-14 22-32 43-53 62" fill="#ec8b81"/><path d="M1811 1229c-4 0-6-3-7-6v-5c1-3 3-5 6-6-1 2 0 3 2 3l2-1 2-3a111 111 0 0 0 31-11c15-8 29-19 41-32l6 16a155 155 0 0 1-81 44l-2 1m-459 54 2-13a653 653 0 0 0 273-268h8a780 780 0 0 1-51 84c-32 44-69 85-110 120-37 31-78 57-122 77m33-111c22-43 53-82 93-113a728 728 0 0 1-93 113m380-6c-2 0-4-2-4-4a683 683 0 0 0 25-120l6 4a692 692 0 0 1-27 120" fill="#8d1e1d"/><path d="M1812 1215c-2 0-3-1-2-3a985 985 0 0 0 44-103l7 10a503 503 0 0 1-45 92l-2 3-2 1" fill="#8d1e1d"/><path d="m1822 1207-2-3 1-1v-1c21-19 39-40 53-62l5 9a221 221 0 0 1-57 58m-83-27c-1 0-2-1-1-2l3-6a312 312 0 0 0 26-109l2-31 5 3c-1 25-4 51-9 75a279 279 0 0 1-26 70" fill="#8d1e1d"/><path d="M2358 1523v-7l5-7c7-8 3-16-4-21a1024 1024 0 0 1 15-130c5-26 9-51 11-76 4 3 8 4 13 4s10-2 14-5l6-7c6-2 11-6 15-11 16-6 31-15 44-26 9 86-18 182-73 246-13 16-29 29-46 40m78-267 1-3 2-2c15-7 27-19 35-33l2 12c-12 11-25 19-40 26" fill="#fde9cc"/><path d="M2138 1538c-30-15-58-38-80-69-61-87-55-210-7-306 1 2 3 4 6 5-56 104-56 232 26 324 14 17 34 31 57 43l-2 3m220-16-1-5 1-1v6m1-34-6-3 14-84c-4 29-6 58-8 87m-251-30-8-9c-66-77-58-188-22-277l5 1-2 4c-7 13 1 28 11 33-15 34-20 76-20 103 0 37 2 117 39 143l-3 2m195-39c16-36 22-80 20-121 25-30 24-77 10-119l3-1c2 3 5 5 7 5l5-2c9-8 17-16 23-26l3 15c-3 84-13 165-27 247a226 226 0 0 0-44 2m-14-311a110 110 0 0 0-21-15l-2-5v-6a2270 2270 0 0 1-15-29c12 4 24 10 35 17l3 38m-5-56c-12-7-25-11-38-13l-7-22a179 179 0 0 1 39 2l6 30v3" fill="#fde6cb"/><path d="m2235 1560-21-1a230 230 0 0 1-131-67c-82-92-82-220-26-324a16 16 0 0 0 7 1c9-1 18-3 25-6l-6 10-5-1c-36 89-44 200 22 277l8 9c-1 3-1 6 1 9 19 24 46 37 73 41a160 160 0 0 0 51 9c37 0 68-15 103-29l2 3c-2 2-3 5-2 8l7 32-7 5c-32 16-66 24-101 24m122-43a401 401 0 0 0-6-26l2-4v-2l6 3c7 5 11 13 4 21a132 132 0 0 1-6 8m-218-405 5-22c2 2 4 3 7 3s6-2 8-5l16-26a98 98 0 0 1 54-13l2 4 17 32-24-3c-30 0-60 12-85 30m129-19-3-2 1-3 2 5m-120-20 6-28 16-9-22 37m105-15-2-5 2 5m-70-11c5-8 10-18 16-22l10-3c8 1 8 5 12 13l2 2c-14 1-27 4-40 10m63-8-3-1-12-20 8-1 7 22" fill="#fab6b0"/><path d="M2197 1493c-27 0-55-12-74-36a9 9 0 0 0-12-1c-37-26-39-106-39-143 0-27 5-69 20-103l9 3 5-1-1 5c-1 5 2 9 6 10l-6 16a33 33 0 0 1 30-4c19 7 25 25 22 43 2 18-5 37-18 47-7 6-14 8-21 8-8 0-15-3-21-7-2 25 0 52 9 78 9 29 37 46 64 46 17 0 34-6 46-21a201 201 0 0 0 20-202 82 82 0 0 0-69-47c-6 0-11 0-16 2 15-11 34-18 52-18 11 0 21 2 31 7 37 18 38 56 52 90 2 4 5 6 8 7l4 26c1 6 6 9 12 9l8-3 5-6a261 261 0 0 1-28 135c-1-3-5-5-8-5s-6 1-7 5a86 86 0 0 1-83 60" fill="#fff"/><path d="M2294 1272c-3-1-6-3-8-7-14-34-15-72-52-90-10-5-20-7-31-7-18 0-37 7-52 18-16 4-31 17-40 40v1c-4-1-7-5-6-10l1-5c3-1 7-3 10-7 22-25 66-63 104-63 15 0 29 6 41 21 15 19 24 42 30 67 3 14 2 28 3 42" fill="#efecec"/><path d="M2398 1286a23 23 0 0 1-15-5l3-34 2 11c2 12 11 18 21 18l9-2-6 7c-4 3-9 5-14 5m39-33 1-2h1l-2 2m9-26c6-21 10-42 13-64l9 25-2 3c-2 14-10 27-20 36m-113-48-1-2 3-4 1 5-3 1m-270-10-6-1c-3-1-5-3-6-5l16-30 1 3c1 5 5 7 10 7 2 0 4 0 6-2l7 1c9 0 18-4 20-15 4-17 6-36 7-55l15-12-17 71c-11 10-20 21-27 32a70 70 0 0 1-26 6m274-1c2-6 7-13 12-19l2 1c3 0 5-1 6-3a128 128 0 0 1-20 21" fill="#f2cd8d"/><path d="m2091 1142-7-1c2-1 3-3 3-5 3-12 4-24 5-37l10-11-14 48c-1 2 1 3 3 3l2-1c8-20 14-40 19-60l6-6c-1 19-3 38-7 55-2 11-11 15-20 15m318 134c-10 0-19-6-21-18l-2-11 1-6c3 6 9 8 15 8 8 0 16-6 17-17a518 518 0 0 0 2-76c4 0 8-2 8-7 2-13 2-25 2-37a227 227 0 0 1 28 51c-3 22-7 43-13 64-7 6-16 10-26 12-9 3-5 16 4 16h2l12-4-1 2-1 3c-10 5-20 9-31 12-3 1-2 4 0 4h1l27-9c-4 5-9 9-15 11l-9 2m-77-99-2-5 4-6c1-12 0-24-3-36l1-10c5 8 10 17 13 26 1 2 2 3 4 3-5 6-10 13-12 19l-2 5-3 4m42-7-3-15 3-4v19m-18-32c-6-15-13-30-22-43 0-20-1-41-4-61 12 5 24 11 36 19 0 27-4 56-10 85m-32-25-4-1 1-9 3 4v6m0-29-4-5c-1-17-4-34-7-52l8 3 3 54m-40-35-6-30h1a619 619 0 0 1 5 30" fill="#f1b38a"/><path d="M2078 1143c-5 0-9-2-10-7l-1-3 9-13v5c-1 1 1 2 2 2s2 0 3-2l2-15 9-11c-1 13-2 25-5 37 0 2-1 4-3 5-2 2-4 2-6 2m239 1c-7-11-13-20-21-28l2-37c8 7 16 15 23 24l-1 9h-1c-6 0-11 5-8 11l6 21m-26-34-2-2-3-38 6 5-1 35m29-31-22-19-4-38 19 5c3 18 6 35 7 52m-28-23-8-4v-3a333 333 0 0 0-5-30l9 2 4 35m110 193c-6 0-12-2-15-8a1358 1358 0 0 0 5-125c4-11 8-23 10-36l9 9c3 19 4 38 1 57 0 5 3 9 7 10 2 25 2 50 0 76-1 11-9 17-17 17" fill="#ec8b81"/><path d="m2338 1491-2-3v-3l11-68a1868 1868 0 0 0 27-266l16-29 1 4a1197 1197 0 0 1-8 155 2176 2176 0 0 1-30 204v2l-2 4c-1-3-3-4-6-4l-7 4" fill="#8d1e1d"/><path d="M2343 1533v-2l-7-32c-1-3 0-6 2-8l7-4c3 0 5 1 6 4l1 2 5 24 1 5v1l-15 10m-173-79c-27 0-55-17-64-46-9-26-11-53-9-78 6 4 13 7 21 7 7 0 14-2 21-8 13-10 20-29 18-47 3-18-3-36-22-43l-11-2c-7 0-13 2-19 6l6-16v-1c9-23 24-36 40-40 5-2 10-2 16-2 26 0 54 17 69 47a201 201 0 0 1-20 202 58 58 0 0 1-46 21" fill="#8d1e1d"/><path d="M2310 1307c-6 0-11-3-12-9l-4-26c-1-14 0-28-3-42-6-25-15-48-30-67a50 50 0 0 0-41-21c-38 0-82 38-104 63-3 4-7 6-10 7l-5 1-9-3c-10-5-18-20-11-33a130 130 0 0 1 8-14c7-11 16-22 27-32l-9 26c-2 7 4 12 9 12 3 0 6-1 7-5l16-52c25-18 55-30 85-30l24 3 2 3c2 4 5 5 8 5l7-2a92 92 0 0 1 26 19c0 11-2 22-3 32-1 2 1 3 2 3l3-1 3-28c8 8 14 17 21 28v19c-1 6 4 10 9 10l4-1a163 163 0 0 1 3 7c14 42 15 89-10 119l-5 6-8 3m-112 202a114 114 0 0 1-89-42c-2-3-2-6-1-9l3-2c1-2 3-2 5-2 3 0 5 1 7 3 19 24 47 36 74 36 35 0 70-21 83-60 1-4 4-5 7-5s7 2 8 5l1 7c-15 46-56 69-98 69m153-359-2-1c-2 0-3-1-4-3-3-9-8-18-13-26l2-25c9 13 16 28 22 43l-2 5c0 2 1 3 3 4-1 2-3 3-6 3m-27-43a164 164 0 0 0-26-28v-19a148 148 0 0 1 26 24v23m-32-32a129 129 0 0 0-41-22 2001 2001 0 0 0-5-14 123 123 0 0 1 46 17v19m-117-13 3-5 5-10c13-6 26-9 40-10l6 12a97 97 0 0 0-54 13" fill="#8d1e1d"/><path d="M2116 1169c-5 0-11-5-9-12a728 728 0 0 0 26-97l21-15-6 28-5 8c-2 4-1 7 1 9a818 818 0 0 1-21 74c-1 4-4 5-7 5" fill="#8d1e1d"/><path d="M2362 1140c8-27 13-54 15-80l11 8c-4 26-12 51-26 72" fill="#f1b38a"/><path d="M2343 1183c-2 0-5-2-7-5l-1-5 2-5 1-1c7-6 14-13 19-20h1l2-2 2-5c14-21 22-46 26-72l14 12a230 230 0 0 1-28 71 135 135 0 0 1-26 30l-5 2m-85-90c-3 0-6-1-8-5l-2-3-17-32-2-4-6-12-2-2c-4-8-4-12-12-13l22-4a732 732 0 0 1 22 40l13 24v6l-1 3-7 2m-107 0c-3 0-5-1-7-3s-3-5-1-9l5-8 22-37 29-11c-6 4-11 14-16 22l-5 10-3 5-16 26c-2 3-5 5-8 5m175 80c-5 0-10-4-9-10a75 75 0 0 0-6-40c-3-6 2-11 8-11a9 9 0 0 1 5 1l-5 53c-1 1 1 3 3 3a339 339 0 0 0 9-38c3 11 4 23 3 35a7 7 0 0 1-8 7m95-17h-2c-4-1-7-5-7-10 3-19 2-38-1-57l20 23c0 12 0 24-2 37 0 5-4 7-8 7m3 99c-9 0-13-13-4-16 10-2 19-6 26-12 10-9 18-22 20-36l2-3 6 30c-8 14-20 26-35 33h-1a73 73 0 0 1-14 4m-333-116c-2 0-4-1-3-3l14-48 10-10a494 494 0 0 1-21 61m-13-12c-1 0-3-1-2-2v-5l7-10-2 15c-1 2-2 2-3 2" fill="#8d1e1d"/><path d="M2358 1147h-1c-2-1-3-2-3-4l2-5c6-29 10-58 10-85a300 300 0 0 1 11 7 324 324 0 0 1-17 85l-2 2m-36 22c-2 0-4-2-3-3a595 595 0 0 0 2-136l9 4a386 386 0 0 1-6 132c0 2-1 3-2 3m-32-24c-1 0-3-1-2-3a407 407 0 0 0 0-121l6 1a416 416 0 0 1-1 122l-3 1m115 127c-2 0-3-3 0-4a189 189 0 0 0 71-38l1 7a181 181 0 0 1-72 35" fill="#8d1e1d"/><path d="M1217 1346c43-10 87-20 130-33 26-7 15-48-11-41-43 13-86 23-130 33-26 6-16 47 11 41m726-1c14-6 31-6 44 1 11 4 23 3 29-8 6-9 4-24-7-29-28-13-57-14-86-1-11 4-14 19-8 29 6 11 18 12 28 8m552-29c-4-14-17-19-30-17-28 3-62 8-86 24-10 7-9 22 3 25 29 10 65 3 95-3 13-2 21-17 18-29m-595-24c-65-30-74 118-12 97 10-3 4-19-6-16-26 9-28-84 11-66 10 5 17-10 7-15" fill="#691b1a"/><path d="M2020 1304c16 18 19 42 9 64-4 10 11 17 16 7 12-27 8-59-11-81-8-8-21 2-14 10m417 599c-33-15-64-55-28-88 23-21 68-26 66 17l16-3c7-19 21-28 42-27 23 7 36 22 39 45 4 28-14 50-35 66-8 6 2 20 10 14 42-32 64-102 10-134-27-16-104 5-80 46 3 6 15 3 15-4 1-19 1-42-18-52-22-11-55 2-73 15-51 39-19 98 29 120 10 5 17-11 7-15M1177 346c-14-14-45-42-47-63l20-53 18-5c3 0 69 3 52 26l15 2c-20-40 43-59 67-53 52 13 37 62 24 89-15 32-39 55-68 73-9 6 1 20 10 14 47-29 130-128 67-180-42-34-147 0-116 63 3 6 11 8 14 3 32-44-58-58-84-49-78 27-21 105 14 143 7 8 21-2 14-10" fill="#691b1a"/><path d="M1709 1575c-131 46-265-38-309-163-28-79-19-162 18-230 8 14 28 14 41 3 11-9 27-27 32-42l7 2c22 2 37-21 29-40-5-13-17-19-29-20 3 0 5 0 7-2a195 195 0 0 1 52-35c113-51 252 28 295 142 50 132 0 334-143 385zm123-472a228 228 0 0 0-275-75c-4-4-10-5-16-2a327 327 0 0 0-185 310c7 118 83 230 198 267 284 92 434-302 278-500m425 430c-58 14-121-15-162-55-46-45-57-115-53-177 8-119 88-225 205-252 75-1 131 51 162 117-11 2-21 9-26 20-5 15 0 30 2 44 3 13 8 26 20 34 9 6 22 7 32 1l1 9c8 116-65 232-181 259zm199-330c-24-93-99-176-193-176-2-2-5-2-8-2l-16 4c-11 2-23 4-34 9-2 0-4 2-5 4a275 275 0 0 0-156 187c-24 88-13 220 65 281 74 58 193 48 263-10 83-71 111-194 84-297" fill="#fff"/><path d="M1670 1024c240 24 291 360 128 504-83 74-209 77-301 20a271 271 0 0 1-121-282 287 287 0 0 1 294-242c27 1 28-41 1-43-297-16-465 387-231 579 93 76 231 94 338 34 117-64 173-209 156-337-19-141-118-261-263-276-28-2-28 40-1 43m603 15c168 31 220 213 160 357-50 119-191 189-307 110-178-121-75-494 152-466 27 4 28-39 1-42-213-27-333 253-268 426a240 240 0 0 0 257 155c124-17 204-124 226-242 27-151-49-309-209-338-27-5-39 35-12 40" fill="#691b1a"/><path d="M1014 2150c-3-7-9-10-16-7l-4 2-4-5c-3-4-8-4-11-1-10 9-10 22-12 34l-8 41c-3 14 16 25 24 11 8-13 16-25 22-38 6-12 13-25 9-37m43-19-6 6c-2-2-5-3-6 0-3 5-7 8-9 13l-5 19c-4 11-5 24 8 29 12 5 22-5 26-14l16-38c4-14-14-25-24-15m54 17-5-4c-5-4-10 1-11 5l1 7c1 6 8 8 13 5 4-2 5-9 2-13m-46 88c-3-8-12-13-19-8-4 2-7 6-7 11v2c0 7 7 14 15 12l7-4c4-3 5-8 4-13m-82 29-1-4v-1c-1-8-8-15-16-12-7 3-13 8-12 16 0 8 4 16 12 18s18-4 18-13l-1-4m-1-5c0-2 0-1 0 0" fill="#fde1c3"/><path d="M1315 2121c21-21 10-54-1-77-2-5 0-9 3-12l-3-2c-25-4-49-9-75-10l-21 7c-36-8-66-7-82-47l-12-33c-1 1-4 2-6 1-15-4-23-13-28-28-2-8 0-22-5-29 1-9-6-12-19-6-17-7-26-1-28 18l-4 18c-2 5-7 8-13 6-16-9-60-54-78-34 2 18 10 38 13 53 2 6-3 12-9 11-9-2-64-16-66-2 0 6-5 9-9 9 5 17 20 35 36 43l7 1c5 0 9 3 9 8l-2 6c-2 4-5 6-10 5l-6-2h-1c-15-5-28-2-40 5-4 5-11 12-14 19l2 11c2-1 5-2 8-1l13 7h15c10 2 7 16-2 17l-2 2-13 21c5 6 12 10 19 14 15-2 29-6 44-6 17 1 32 8 49 11 4 0 6 3 6 5 29-1 58-4 86-10l10 2c21 0 42-2 63-4 37 0 72 5 110 11 19 2 39 2 55-6l1-2" fill="#fde1c3"/><path d="M1027 2015c1-7 1-15-1-23-5-22-33-31-50-15a73 73 0 0 0-21 63c-17 19 8 46 30 35l8-3c12-2 23-9 29-20 7-11 8-25 5-37m290 34c-3-3-7-4-11-2-2 0-3 2-5 4-12 12-22 23-38 31-24 12-47 6-72 3-11-1-23-2-31-10-17-14-5-29-6-46-1-13-19-21-27-8-31 50-89 115-156 89-6-2-10 8-5 10 47 21 86 13 119-10 2 3 5 6 10 6 53 4 107 11 160 9 17 2 34 3 48 1 36-7 35-50 17-75l-3-2" fill="#f8a8a4"/><path d="M1482 2085c-5-11-15-16-25-19-19-23-54-37-82-37a38 38 0 0 0-32 12l-15-10c-7-3-17 2-14 10 5 12 12 24 14 37 3 17-2 34-13 43l-33 3c-10 1-17 16-6 22 15 8 29 10 41 7 19 1 38-1 57-4 29-4 67-10 93-24 15-9 23-24 15-40" fill="#fabb09"/><path d="M1476 2070c-4 4-6 8-9 13h-1c-21 8-42 14-65 17-16 3-57 10-67-7-3-5-11-4-11 2 1 9 3 15 7 20h-7c-7 0-13 6-14 13l-2-3c-3-3-8-5-12-3l-9 2c-9 3-8 13-1 18 2 7 11 12 19 8 3-2 5-4 6-7 2 6 8 10 13 9 28-2 57-5 82-19l30-3c14-3 28-6 37-15 4 0 7-1 10-4 4-5 6-11 9-17l5-16c1-11-15-16-20-8" fill="#f68b11"/><path d="M1037 2020c-10-25-19-67-1-91 6-9-7-20-13-11-22 30-14 76-2 108 4 11 19 5 16-6" fill="#691b1a"/><path d="M1038 1929c2-9 4-18 9-27 3-6 12-22 21-20 6 2 8 19 10 25l9 31c2 10 18 4 15-6-4-18-8-36-15-53-4-10-10-17-22-14-28 5-38 37-44 61-2 11 14 13 17 3" fill="#691b1a"/><path d="M1094 1944c17 14 43 34 40 60-3 21-21 44-31 62-5 9 10 16 16 7 13-24 38-55 32-85-5-23-29-43-47-58-8-7-19 7-10 14m-146 136c-4-41 23-94 55-121 8-6-2-20-10-13-37 31-66 88-62 136 1 11 18 9 17-2" fill="#691b1a"/><path d="M972 1971c-6-11-11-22-14-34-3-9-10-27-8-36 4-17 25 1 32 6l28 21c9 6 20-7 11-13-16-12-62-57-83-34-9 10-5 27-2 39 4 20 11 39 20 57 5 10 20 4 16-6" fill="#691b1a"/><path d="M969 1963c-20-10-89-44-101-3-10 34 47 53 68 67 9 6 19-7 10-13-18-12-49-21-60-40-10-18 16-16 26-14 18 3 34 11 50 19 10 4 17-11 7-16" fill="#691b1a"/><path d="M939 2018c-20 1-96-3-91 33 2 14 19 18 30 20 19 4 38 6 57 7 11 0 13-17 2-17l-31-3c-7 0-28 0-34-5-12-12 25-16 31-16l38-2c11 0 9-17-2-17" fill="#691b1a"/><path d="M907 2066c-16 11-46 31-42 55 5 25 55 4 68-2 10-5 4-21-6-16a112 112 0 0 1-47 12c2 3 3 3 3-2 5-7 8-14 15-20l19-13c9-6-1-20-10-14" fill="#691b1a"/><path d="M940 2120c50 23 121 31 158-17 7-8-6-19-13-10-16 20-30 26-56 27-29 0-56-3-82-16-10-4-17 11-7 16m200-98c90 14 181 19 273 21 11 0 9-17-2-17-90-1-179-7-268-21-11-2-14 15-3 17" fill="#691b1a"/><path d="M1081 2126c82 12 160 4 241 5 11 0 9-16-2-17-79-1-156 7-236-5-11-1-13 15-3 17" fill="#691b1a"/><path d="M1294 2037c26 1 24 39 22 58l-3 27c0 3 0 6-2 9-6 16-25 21-29-1-2-10-19-8-17 2 4 21 22 44 45 31 16-9 19-29 21-45 4-31 11-96-35-98-10-1-13 16-2 17" fill="#691b1a"/><path d="M1307 2166c58-10 117-17 173-36 10-4 4-19-6-16-54 19-113 25-169 35-10 2-9 19 2 17m-337-22-8 64c0 7-2 19 6 23 9 5 14-6 18-12 11-17 19-36 28-54 2-5-6-9-8-4l-14 31c-3 4-16 34-22 26-3-4 2-28 3-34l6-39c0-5-8-6-9-1m72-15c-6 17-11 34-12 51 0 9-1 22 9 26s15-3 19-10c8-15 16-30 22-46 2-5-6-8-8-3a401 401 0 0 1-17 36c-3 6-3 14-12 9-7-4-5-8-4-16a146 146 0 0 1 11-43c2-5-6-9-8-4m54 18v16c0 2 4 4 6 3 7-3 12-8 15-15 2-5-6-8-8-3s-5 8-10 10l6 3v-15c-1-5-9-4-9 1m-134 115c4-5 15-2 15 5s-11 9-15 4c-3-4-10 1-7 5 9 12 30 6 30-9 1-15-20-21-29-10-4 4 3 9 6 5m84-16c1-3 2-8 5-10 2-1 5-1 6 1 0 3-5 8-7 9-3 1-7 1-7-3 0-5-9-4-8 1 0 8 8 12 14 11 8-1 15-10 16-17s-5-11-12-11c-8 0-12 8-15 15-2 6 6 9 8 4" fill="#691b1a"/></svg>