<svg xmlns="http://www.w3.org/2000/svg" xml:space="preserve" width="3333.3" height="2666.7"><path d="M0 2667h3333V0H0Z" fill="#fef8d6"/><path d="M2924 1333a1258 1258 0 1 1-2515 0 1258 1258 0 0 1 2515 0" fill="#fde3c4"/><path d="M1602 2523c-240 0-434-48-434-86 0-37 195-68 435-68s435 31 435 68c0 38-196 86-436 86" fill="#cd9e86"/><path d="m1148 1487-1-2c-3 2-7 1-10-2a154 154 0 0 1-25-48l-3-5c-7-8 7-17 14-9l9 12c2-3 6-4 10-2 7 3 11 8 16 13 3 4 3 9 0 13l5 23c3 9-9 15-15 7m1256-247c-12-83-79-134-154-138-17-84-63-165-103-238a524 524 0 0 0-279-251 752 752 0 0 0-392-53c-133 27-219 135-296 237a53 53 0 0 0-7 46c-55 94-108 189-160 286-34 64-57 128-68 194 4 1 7 4 6 10-7 29-9 62-3 92 3 22 8 44-3 64-1 3-4 5-7 5-7 16-12 33-16 50-8 27-19 57-22 86-1 10 0 20 4 29 2-2 6-2 9 0 14 9 22 22 21 38-1 14-9 29-1 41l9 2c6 1 12 10 17 21l7 12c2 9 7 17 14 24l1 1 9 13 5-4c10 15 32 24 48 27 12 1 31 0 48-5h4l17-9c27-1 52-6 74-24l8-7 13-8c2-5 4-11 4-16l9-18c3 0 6 2 7 6v3c2-4 6-6 11-7 7 0 12 5 16 11l16-4c2 2 6 5 10 6 62 19 123 41 185 62 59 19 119 43 182 47 86 7 192-54 173-153 40-21 106-17 143-27 46-14 89-37 126-67 65-52 104-115 122-198 103-24 209-74 193-186m-398 847c-6-41-17-82-37-115-7-11-24-10-30 0-7-4-18 2-16 13 5 32 7 72 24 101 2 3 5 4 7 5l8 49c-2 1-3 4-3 7-2 18 1 39 23 42 7 1 13 0 18-4 5-2 9-6 11-12 3-6 4-14 4-21 1-21-3-44-9-65" fill="#fde1c3"/><path d="M1992 2167c-4-29-9-58-15-86-5-26-16-54 2-78 1-2 0-5-2-7l-5-4c-3-2-8-1-10 0-22 13-19 33-15 56l21 126c3 16 27 9 24-7M935 1547l-6-6c-4-2-10-1-13 2-11 11-3 35-2 48 1 8 8 15 16 12 12-4 20-14 21-28 1-12-8-20-16-28m73-177c-22-16-48 0-54 24a131 131 0 0 0 0 52c-15 14-9 44 16 44 17 0 25-12 25-25l10 1c6-1 11-1 16-3 12-5 19-13 21-25 3-21-17-55-34-68m157 333-9-5-6-1h-2c11-10 20-24 22-37 4-24-12-60-36-72l8-9c-1 4-1 7 4 10 31 18 24 65 25 96l2 25-8-7zm1013-245a298 298 0 0 1-195 176 997 997 0 0 1-672-30c-38-18-84-37-112-68-2-3-7 1-5 4 26 35 47 67 85 90 14 8 27 15 41 21-6 1-13 6-13 15 0 22-11 47-35 53-18 5-30-4-47-6-3-1-5 1-6 3l-4 2-10 5v-31c-2-41 2-108-49-119l6-7c7-12 6-28-5-37l-2-2c-2-11-7-23-13-33l-1-3-5-6c-5-5-12 1-9 6 22 39-7 78-38 100l-4 1-3 2c-13 6-4 27 10 23 27-8 47 16 41 42-2 11-9 19-16 25-10 1-19 4-28 7-11 4-22 9-24 21-2 10 4 18 12 24l10 4-18 13c-12 6-23 9-36 10-26 1-51-7-65-31-4-7-16-2-13 6l3 10c1 67 93 80 145 65 15 6 34 6 45-7l4 1c26-1 62-21 69-47 1-4 1-7-1-10l1-2 4-2c21 6 43 14 65 15l6-1c15 1 30-3 39-17 15-22 8-58 1-81l-2-4 69 24a990 990 0 0 0 621-25c79-34 166-100 179-192 2-16-19-22-25-7m-1063-142c0-10-7-19-16-23-9-5-20-6-31-3-7 3-16 11-15 20 3 23 14 42 33 54 11 6 27 0 30-12 2-10 2-24-1-36m1193-18c-7-7-19-9-27-4-9 5-16 12-20 21l-1 5c-20 5-36 24-35 45 1 23 22 42 46 36 19-5 35-25 44-43 9-19 9-44-7-60m-61-159a253 253 0 0 1-119-185c-4-38-61-40-60 0 0 18-1 35-4 53-75-45-164-59-250-35-76-118-101-257-124-393-5-34-56-24-57 7l-9 417c-30-11-56-29-78-55-16-19-50-4-49 20l1 16c-83-66-44-236-63-327-6-27-48-26-55 0l-87 355c-5 23-7 56-19 76-23 38-59-9-72-30-28-44-42-100-37-152 1-14-20-16-24-3-20 65-17 129 18 188 26 44 82 91 134 56 22-14 31-39 38-63l33-132 28-109c5 94 24 183 129 215 17 5 36-8 36-26 26 17 55 29 86 35 19 3 35-8 36-28l6-210c21 68 49 134 91 193 7 10 21 18 34 13 86-30 181-16 252 43 14 12 34 10 45-2 25 46 62 85 110 114 32 21 62-31 30-51" fill="#f8a8a4"/><path d="M2210 1210c-46 89-116 163-224 162-103-1-195-77-232-170l-3-4c-12-26-57-31-81-29-29 4-52 15-68 39-5-3-12-2-17 4-28 43-53 80-98 107-40 23-86 36-132 33-98-6-185-83-215-174-3-10-22-9-21 3a250 250 0 0 0 224 218c105 11 237-60 264-168l5-1c28-11 61-16 90-7 14 5 28 14 42 4v-1a250 250 0 0 0 236 189c109 3 239-79 258-193 3-16-20-29-28-12m-426 528-5-6c-4-5-10-9-17-11-6-1-11 7-6 11 3 3 5 5 6 9l1 11v2c-29 30-52 59-102 58-58-1-87-38-108-86-3-5-12-5-14 0-31 60 55 109 103 116 58 7 147-28 151-95 1-6-4-9-9-9" fill="#f8a8a4"/><path d="M1451 1008c-65-27-135 6-168 60-32 44-42 107-23 159 31 88 146 150 223 74 70-70 71-250-32-293m612 131 3-9c3-32-15-62-39-83-4-8-10-15-16-21-33-30-77-19-109 5l-14 13c-39 5-63 55-70 94-13 62-6 134 50 174 30 21 66 24 98 13 19-1 38-8 56-23 47-38 58-105 41-163" fill="#fff"/><path d="M1995 1968c-2-38-25-87-52-115-30-60-70-112-137-139-16-6-25 14-19 26 6 14-4 38-15 48-8 7-18 13-27 19-22 13-45 21-70 24-35 4-65-7-97-16-15-16-30-30-37-54l-7-25 2-1c6-5 7-14 6-22-2-8-9-14-17-15-7-1-13 3-17 8-21-8-48-7-68-13-29-9-55-24-84-34-5-9-19-7-20 4 0 12-10 87-28 104h-1l-3-2c-7-2-16 0-18 8a23 23 0 0 0 1 12c2 5 5 9 9 13l8 5c1 3 3 5 5 6l16 4 6 4 104 21c18-1 31 7 41 24l-5 16c0 20-12 45-17 64l-41 130c2 14 1 29-1 44-1 10-2 26-9 36-3 16-3 31 4 44 43 22 78 58 130 54h3a60 60 0 0 0 22-12c48 56 144 57 215 36 63 23 138-7 179-58 18-22 19-45 14-71-10-44-24-88-36-131 31-12 63-19 61-46m-691-203 1 1-1-1" fill="#fabb09"/><path d="m1515 2204-21-6-15-7c-2-3-3-5-6-6a17 17 0 0 0-5-9c3-4 8-6 13-8 4-2 6-5 6-8l10 3c16 4 33 10 46-2 3-3 3-8 1-12-7-13-23-14-38-16l-2-2c-22-13-36-31-45-51-7-39 11-86 18-122a2488 2488 0 0 0 30-161c1-14-18-19-26-11-26 25-60 17-89 4-21-10-52-28-50-56 0-8-11-9-13-2-3 12-3 23-1 34l-3 4c-1 5-5 9-9 12 0-3-2-7-4-10-4-4-8-5-13-6-7-2-14 3-14 10 1 7 2 11 6 17 4 4 11 5 16 3l1 4 2 6c4 8 12 14 22 10l1-1c16 9 33 15 52 14l7-3c10 3 20 5 31 6 10 4 20 8 31 8 12 0 23-2 31-8a2111 2111 0 0 0-37 126c1-4-5-4-6-1-11 34-16 72-10 106-6 0-12 4-13 10-4 15-8 41-2 60-11 8-18 20-17 34 1 18 13 30 29 34l9 6c2 8 11 14 19 17 11 4 23 8 34 5 12 5 25 8 37 9 6 1 11-3 14-8s3-10 0-15c-6-10-18-9-27-11m435-12v-1c5-18 6-37 5-51-1-49-10-96-26-140l-5-21 10 15c5 6 16 2 17-5 8-36-13-79-28-112-17-36-40-80-78-97-6-3-14 2-12 10l7 21v1c17 68 48 133 62 202 8 39 13 78 14 117 1 19 3 39 1 58-6 13-16 25-27 38v1h-1s-1 0 0 0h-1c-5 1-9 4-11 9-1 5 1 12 6 14 3 2 6 3 10 3 3 4 8 7 13 5 27-11 47-26 57-54 3-9-5-14-13-13m-154 43c-17-8-36-15-53-24l-5-5c-5-6-12-12-21-12-17 0-23 17-34 28a488 488 0 0 0-24 10l-4 3c-2 1-2 3 0 4-1 5 2 10 9 10l17-1c2 4 5 6 10 6 4 3 9 6 14 7h-29c-8 0-11 12-4 16 21 12 53 20 75 6 7-4 8-15 2-20l6-1 9-3 25 2c13 0 19-20 7-26" fill="#f68b11"/><path d="M1670 2396c-9-42-13-85-10-128 1-10-8-23-18-25-15-2-28-5-41-13-8-5-17-5-23-2l-18-4h-1l-3-3c-6-7-17-2-17 7-2 32 14 65 24 95 5 17 12 35 16 52l4 20c-16 10-8 37 12 30 19-6 37-8 57-5 13 1 20-13 18-24m203-152c-3-7-10-10-15-5h-3c-13 0-25 4-38 5-10 1-20 4-27 9-6-1-12 2-14 9-6 21-4 41-4 62 0 4 0 64-2 64-17-3-29 19-12 28 10 6 18 7 25 5l48 10c9 1 20-3 22-13 8-41 12-84 15-127 3-7 4-14 5-22s3-17 0-25" fill="#845434"/><path d="m1594 2319-8-5h-5c-3-2-8-1-11 2-4 4-4 12 0 15 8 6 20 9 27 1 5-4 2-11-3-13" fill="#774125"/><path d="M1652 2355c15-14 12-49 6-69l-2-7c2-2 3-6 3-9l-2-9c-1-5-7-8-11-6l-4 2c-24-24-63-26-95-38-8-3-12 9-6 13 18 12 38 20 57 31 11 6 23 13 29 24 2 3 7 21 8 35l-9 5c-3 3-4 8-4 12l1 1c-6 5-7 15 1 20 15 10 21 23 16 40-3 15 20 21 23 6 4-20 0-37-11-51m156 18c13-1 25-2 36-7s25-12 25-25c0-6-5-10-10-10-10-1-17 8-25 14-9 5-18 10-28 12l-3 2-3-3 3-34c3-21 8-73-28-63-3 1-5 4-3 7 14 19 7 41 4 62-2 16 0 63-15 72-10 7-2 21 8 19l10-4 2-1 4-4v-1c8 8 20 14 29 7 5 0 10 0 15-2 5-1 9-4 10-9 13-3 12-24-3-24-3 0-6 1-8 3-5-2-27-6-27-15 1 3 4 5 7 4" fill="#774125"/><path d="M1670 2419c-3-5-8-6-13-5-4-3-9-4-13-1-20-3-48-5-58 13l-2 6c-4 3-2 9 2 12 5 10 18 16 26 4l11-1c8 4 18 4 26 3 17-1 29-15 21-31m175 0-14 5c-9-6-15-12-26-14h-14c-5 0-10 3-15 4-8 0-10 8-7 13-7 0-14 1-18 8-5 7-1 16 7 19 10 4 23 0 33-2 12-2 25-2 35-9 10 0 21-2 27-10 6-6 1-17-8-14" fill="#fff"/><path d="M1664 2437c-8-6-20-1-31-1-13 0-27-2-40-6-6-2-9 6-4 10 13 8 26 14 42 14 11 1 29 1 35-10 2-2 1-5-2-7m155-10c-18-5-36 2-54-3-13-3-19 17-6 21 20 6 48 11 63-7 3-4 2-9-3-11" fill="#e8e9e9"/><path d="M1536 2259c-1-5-6-10-11-11-26-4-52-9-76-22-13-7-28-16-38-27-20-22-8-24 2-52 7-21 10-45 2-67 5-4 8-10 7-17-3-22-29-27-48-27-28-1-49 8-72 22-32 10-61 26-82 50-36 30-56 86-59 129-6 72 1 176 77 210 73 34 174 51 249 15 30-15 65-42 76-76 14-44-18-85-27-127" fill="#f9d406"/><path d="M1352 2085a38 38 0 0 0-42 9c-10 11-6 30 9 34 16 4 34 1 46-11s2-32-13-32m28 110c-14-5-23 1-36 3-13 1-27 1-39-2-9-2-17 9-10 16 13 12 28 19 47 20 16 0 38-3 44-21 2-5-1-13-6-16m157 77-5-6c3-4 3-9-1-14l-3-3c-10-10-26 6-16 16l1 1c-5 3-9 8-10 15-10 84-108 119-181 106-69-13-118-64-161-116-4-5-13-1-12 5 3 31 14 57 31 79l5 19c0 4 1 8 4 12l5 6c60 111 267 120 344 25 4-5 5-10 4-15l7-10c22-38 9-85-12-120" fill="#fabb09"/><path d="M1208 2179c-1-2-3-4-6-4-11 0-15 12-17 21-4 11-4 21-1 33 1 4 9 5 10 0l7-27c3-7 10-15 7-23m1-24-2 2c-5 5 3 13 8 8l2-2c6-5-3-14-8-8m158-95-10 3-9 4c-3 2-2 7 2 7 6-1 15 0 20-3s3-11-3-11" fill="#fcf382"/><path d="M1392 2154c-9-15-30-15-45-12-15 2-28 11-40 21l-2 3c-4 2-6 6-5 11 3 12 12 19 23 22 8 1 17 1 25-3 8 1 17 0 25-2 17-5 29-23 19-40" fill="#ed7017"/><path d="M1273 2142c-17-5-44-2-54 15-8 14 1 32 15 37 9 3 19 2 27-1l17-10c15-9 15-36-5-41m147-22c-5-5-11-5-17-4-4 0-6 2-9 5-5 4-6 12-4 18 3 6 9 9 15 10l-2-1c11 3 22-5 22-16 0-4-2-9-5-12" fill="#f14878"/><path d="M2600 1650c1-134-20-265-41-396 6-144 8-290-21-431-21-105-105-242-223-213a678 678 0 0 0-194-188c-87-57-188-94-291-107a764 764 0 0 0-616 201l-35 29c-48-33-116-14-161 18-55 37-87 97-111 158-61 159-88 331-108 500-20 176-45 358-36 535 7 141 43 307 177 381 53 30 132 46 183 3 43-37 43-103-4-135-16-11-34 6-30 22-16 15-28 12-35-8l-7-17c-7-17-10-35-13-54-4-33-3-66-2-100 1-12-9-18-18-18l-5-8c-16-17-31-35-48-50l-4-3-5-14c-8-15-29-28-28-45 1-11 9-15 6-29-6-29-28-40-14-77 3-7-1-13-6-17l11-40c9-25 26-47 29-73l1-3a472 472 0 0 1 19-122c1-2 28-65 40-38 7 17 35 9 34-9-3-49 36-90 85-90 10 0 19-8 19-18-1-66 9-130 27-193l5 14v1c4 32 12 72 45 82 12 17 34 10 41-5 27-18 35-68 45-96l96-285 10 138c6 67 25 131 93 157 12 5 30-5 32-18l3-19 63 57c19 17 50 1 43-25a835 835 0 0 1 3-443c7 25 10 51 14 81 8 55 21 108 40 160 28 78 65 190 163 193l33-2c13-1 25-3 37-2 30 2 41 19 65 32 28 17 61 13 81-13 10-12 16-28 19-44a491 491 0 0 0 62 119c16 21 70 56 56 85-10 19 6 38 26 34 35-6 72 16 88 47 14 26 10 50 6 77-17 40-48 78-54 122-9 58-1 122 6 179 7 59 22 114 46 168l36 81c7 16 15 32 20 49l7 23c7 27-4 31-33 10 2-20-25-29-38-16-45 46-22 115 33 139 34 16 80 16 117 1 10 3 22 0 28-11l7-13c7-8 13-17 17-27 2-5 2-9 1-12 47-115 62-247 63-369" fill="#ebc57e"/><path d="M2333 1151c-17 13-20 17-39 12-8-1-15-5-22-9 27 2 57-7 78-27l2-2c-2 9-7 17-19 26m-131-146c2-4 5-6 8-7l-4 13c-3 0-7 0-10 2 0-3 2-6 6-8m108 75 7 2-1 1-8 5 2-8m-162-192-3-7 1-2 5 4 4 3-7 2m-114-297c-2-6-9-8-15-6l-3-5a165 165 0 0 0 23 7l-5 4m-4 252 7-6 1 6h-8m-130-56 6-16 5 16h-11m-20 158 13-8c-3 16-7 15-13 8m1-134 1 14-1-1c-2-4-4-7-7-9l7-4m-303 77 4-7 1 12-5-5m-64 5v-18l3 8 3 6-6 4m-79-321c-2-2-6-4-9-4l15-23-6 27m-272 308-3-3-9-6c5 1 9 0 12-1v10m-34-18c-16-7-30-25-39-41-10-17-18-38-21-60 4 10 7 21 13 31 13 26 34 61 61 76l-14-6m-26 163 11-2v15l-11-13m-37-86c-18-35-26-79-23-119l5 14c12 31 34 61 65 74-5 17-2 34-6 51-9 37-30 0-41-20m1314 104c1-18-26-26-33-9-31 7-45-1-42-24 1-14 4-28 9-40 6-18 15-36 22-53l47-115c9-20-24-33-34-14-29 50-81 94-143 79-29-8-56-28-62-58-3-14-1-29 4-43 38-26 85-37 130-44 22-3 97-7 74-51-17-32-92-24-119-20-43 6-79 21-114 43l-18-9c-6-20-14-39-24-57 8-6 17-10 30-11 16-2 32-2 48-2 40 1 79 6 118 15 25 6 44-25 25-44-38-40-92-49-145-48-66 2-177 20-192-72-1-7-12-6-13 0l-2 7-22-20c-8-6-23-1-19 11 15 38 37 73 57 109a758 758 0 0 1 47 189l1 30c1 16 7 24-8 4-56-77-91-173-161-240-2-2-5-2-7-1-15-7-36 9-30 26l34 80 16 41c11 35-2 28-9 74 4-26-34-38-40-11l-10 47c-33-47-59-98-78-153-22-63-28-127-41-192l-4-5 1-2c2-10-11-19-18-10-36 37-57 88-72 137-12 18-25 39-34 60l-12-48c-1-5-4-8-8-10 6-30 13-60 24-87 6-13-13-25-20-11-20 43-45 97-51 150l-10 32c-5-57 0-113 6-173l-2-6 25-34c9-12-10-24-19-15a630 630 0 0 0-142 196c-14 31-29 64-40 98l-5 11-18 51c-3 9-9 37-15 41l-41-4-1-22c-3-50 10-96 27-143 1-4 0-8-3-10l1-5c11-42-55-90-93-86-10 2-18 11-20 20-10-1-21 9-14 19 17 23 44 40 67 56 10 7 24 13 36 13-24 44-38 100-33 150-7-9-20-4-21 6l-1 10c-15-24-37-43-50-68-15-28-28-58-34-89-2-13-22-10-22 3l1 15c-3 1-6 3-7 6-11 31-18 59-15 89-4-2-9-1-11 3-8 19-14 40-16 62-3 0-6 2-7 5-26 64-18 172 37 225 15 34 28 84-17 76-15-3-28 9-25 24l5 23-5-10-2-3 1-3c2-7-1-13-6-16l6-45c1-14-19-14-23-3-27 70-36 147-53 220-7 30-26 74-17 106-35 74-39 155-26 236-3 4-4 10-3 17l4 19c-3 2-6 6-7 10-15-109-11-220-3-329 10-140 19-280 44-418 12-66 28-132 50-196 20-58 43-121 102-149 8-4 4-16-4-16-102 3-134 152-156 230-35 127-49 258-63 389-29 254-63 543 73 775 25 43 60 83 111 91 43 7 94-11 105-56v-10l4-7c12-22-18-47-36-27-44 46-60-54-63-79-2-28-5-55-16-81-25-61-69-113-97-173-2-5-6-7-11-8-8-65-2-129 9-194l3 2c10 7 25-1 24-13l-7-75 8-28 15-69c10-6 22-8 32-6 6 1 12-2 16-7 13 3 29-7 23-23l-8-15c20 7 31-7 40-21 12-18 34-15 49-32 7-8 9-18 9-27 9-1 15-8 16-17v-7c0-9-8-17-17-17h-3l-1-3c6 1 12-3 15-8 5-9 5-19 2-28 11-6 17-19 18-32 7-49-2-103-1-152v-5l4-5c-4 31 2 67 4 85 4 33 6 105 54 106 19 1 31-12 41-25 24-30 46-62 68-93 10-14 1-26-11-31 16-25 23-51 27-81 12-93 49-173 89-257-2 35 1 69 6 103-5-2-12 0-13 6-5 24-1 47 2 71l3 18c-1 22 2 45 4 58 5 35 15 87 54 97 9 13 27 19 41 10 10-7 15-20 12-30l3-10 21 32 34 54c13 19 41 7 37-16a962 962 0 0 1 0-389c1-6 0-11-3-14 1-2 3-3 3-5 6-15 8-31 12-46v-4l4-10c2 106 48 215 108 303-6 7-7 17 0 27l68 101c15 22 33 49 62 51 30 2 45-19 52-46 6 7 18 6 25 0 10-2 19-9 19-23-2-31-6-62-12-93 13 23 18 50 21 76 1 8 7 15 13 20-2 5-3 10-3 16 1 11 7 20 15 26 4 3 9 4 14 5 6 9 15 15 26 16 7 2 16-1 21-8 9-7 12-16 10-28l-4-11-2-14c4-43 3-85-3-126 9 1 17-3 23-13l4-4c0 8 1 16 4 24-13-1-27 9-26 22 7 114 54 231 143 305 32 26 82 48 123 28 54-26 26-98 27-142" fill="#eaa87c"/><path d="m2520 1796-8-237c-4-153-8-305-14-457-2-70 0-143-15-211-7-29-17-58-33-83-15-24-34-34-56-50-12-9-24 9-15 19 28 33 44 86 52 128 10 54 9 109 11 163l14 330 13 330c2 53 7 107 4 160-1 26-5 52-15 76l-1 3c5-34-5-70-21-104-34-75-64-146-74-229-10-80 1-155 14-233 11-65 19-128-17-187-3-6-15-4-14 4 6 136-46 265-33 401 6 62 20 123 42 181 26 65 78 128 48 201-2 3-1 7 0 10-17 0-31-9-29-32 1-19-28-23-32-5-8 38 16 74 55 80 49 9 90-33 108-75 25-57 18-123 16-183" fill="#eaa87c"/><path d="M1127 2040c1-10-1-19-5-26-4-9-16-3-15 6 3 17-9 26-21 36v-1c-88-35-72-131-70-206 0-4-2-7-5-9l3-7c2-5 1-13-6-15-8-2-16 4-21 10-4 5-5 11-2 17 1 3 4 5 7 6-18 80-12 197 77 229-46 9-99-30-124-70-35-57-54-125-68-191-27-133-25-271-22-406 3-138 12-278 40-414 13-65 32-130 57-192 25-63 53-120 118-150 6-3 3-15-4-14-98 13-137 144-163 223-41 126-63 259-72 391-9 136-12 273-4 409 8 119 27 250 88 354 26 43 63 81 114 89 44 7 89-10 111-50 6-11-3-20-13-19" fill="#e27773"/><path d="M1038 1284c-1-5-3-11-8-13-3-2-7-3-10 0l-5 7-1 8c0 6 2 11 4 16 5 8 17 6 19-3 2-5 2-10 1-15m126-301c-1-6-4-10-8-11 6-26 4-53-8-76 6 1 12-7 7-11-26-20-49-38-64-67-17-31-19-63-20-97-1-8-12-10-14-2-12 51 14 116 55 154l1 5c7 13 10 26 14 40 5 39-2 76-37 108-2 1-3 3-3 5l-8 3c-18-20-31-43-39-70-15-53-8-106-15-159-1-7-11-10-13-2-18 80-9 197 54 261-3 3-3 7 0 11 27 31 27 75-2 106-4 3-5 8-4 13-7 2-16 3-22 8-17 13-15 36-11 54 3 12 18 11 24 3 11-14 31-33 37-52 13 1 26-5 34-17 10-14 10-30 10-45l2-3c13-19 9-39-2-58 1-5-1-10-7-13l-7-5c9 2 18 0 27-6 26-17 23-50 19-77" fill="#e27773"/><path d="M1242 1079c-21-30-40-57-47-95-8-39-11-82-13-121 0-4-6-5-7-1-14 78-24 182 49 236 11 8 26-8 18-19m599-121c-45-69-90-131-120-210a1030 1030 0 0 1-53-241c1-7-10-12-14-5a747 747 0 0 0-53 469l-10-9c-9-16-21-30-29-48-10-25-14-53-12-80 1-8-12-10-14-2-5 21-6 49-1 75-5 0-9 1-12 4l-4 4h-1l-2-19c-2-12-18-11-24-3-7 11-12 21-16 32-19-49-32-97-35-151-3-65 4-131 5-195 0-5-7-6-8-2l-4 18c-4-3-9-4-12 0-41 53-73 110-95 174-18 53-48 139-29 194 2 5 9 7 11 2 12-27 10-57 15-86a768 768 0 0 1 105-263c-25 116-33 256 42 352 5 6 17 3 18-5l4-15v2c0 13 17 21 26 11l6-6 3 3-1 6c-1 6 5 11 11 11s11-3 14-7l3-3h1l11 16c11 14 27 34 44 39l2 8c5 17 30 10 26-7a882 882 0 0 1 21-489c-3 79 14 156 42 229s67 154 124 209c8 7 22-2 15-12m-566-52c-1-21 0-41 2-62 1-14-20-14-22 0-5 39-12 90 2 128 4 12 21 10 22-3 1-21-4-42-4-63m-78-307c-18-8-37-10-56-5-7 2-7 12 0 14 16 4 32 9 46 18 13 8 22 23 37 24 7 0 11-5 11-11 3-19-23-33-38-40m692 340c-8-28-26-53-36-80-10-28-16-57-26-85-2-7-13-6-13 2-2 53 23 133 62 171 6 5 16 0 13-8m48-3c-3-17-16-30-26-44l-32-47c-5-8-17-1-12 7l30 52c9 14 16 30 30 40 5 4 11-2 10-8m-63-338c-3-4-11 0-7 5 39 57 67 126 90 191 23 64 30 130 48 195 4 16 28 13 28-3 2-143-81-276-159-388m488 207c0-12-16-19-24-10-26 29-42 59-79 77-38 19-88 31-132 35l-3-7c-1-53-15-109-27-158 68-23 136-28 207-24 18 1 22-27 4-30-75-16-150 0-215 38-13-44-29-85-49-125 43-6 89-6 132 0 38 6 73 20 112 20 1 0 2-2 1-3-57-68-176-58-252-31-8-17-18-34-28-50-4-6-14-2-11 4 27 65 50 133 67 202 18 69 18 141 33 210 3 10 21 11 23 0v-1c12 43 30 86 51 126 19 34 43 63 75 79-7 5-9 9-10 17 0 4 1 7 3 9v10c-5 15 14 25 25 15l41-41c10-11 2-26-12-27-90-12-128-129-160-213 52-2 100 0 150-25 36-19 77-54 78-97m140 728c-6-136-1-271 5-407 5-114-3-237-90-322-7-6-19 3-13 10l7 10c68 86 76 196 71 302-4 109-12 217-5 326 6 100 81 496-49 568 40-42 5-116-10-161-26-79-58-156-75-238-9-42-14-85-13-129 1-39 9-77 12-116 0-8-11-10-15-4-51 79-32 195-9 280 14 53 33 104 53 155l27 74 15 45 4 14c14 29 2 45-36 48l-10-10c-9-9-22-1-23 10-2 19 7 34 21 42l-9-1c-7-1-12 7-7 12 26 28 70 19 97-3 37-29 50-80 58-124 21-127 0-253-6-381" fill="#e27773"/><path d="M1532 925c-4 41 0 80 12 119 4 10 19 4 16-6-12-36-15-73-11-110 2-11-15-13-17-3m-398 674c37-10 51-54 36-88-21-50-98-63-145-57s-108 36-117 88c-3 12 1 23 1 35 0 23-15 43-15 65-1 20 18 34 33 47 8 7 18-6 10-13-24-22-25-29-17-60 2-10 6-18 6-28 2-19-6-33 1-53 9-22 28-36 47-47 44-23 97-24 142-3 40 18 63 84 12 99-11 3-4 18 6 15m-180 150c3 80 87 98 151 80 10-3 4-19-7-16-53 16-124 2-127-66 0-11-17-9-17 2" fill="#691b1a"/><path d="M1172 1539c31 20 45 54 49 91 1 11 18 8 16-3-4-40-20-79-55-102-9-6-20 8-10 14m42 179c6 55-39 98-94 92-11-1-13 16-2 17 66 8 120-45 113-111-1-11-18-9-17 2m-250-241c-6-30-10-60-6-91 2-16 5-39 15-52 25-35 53-22 73 3 16 23 25 52 37 77 12 24 25 47 39 70 6 9 20-1 14-10-27-42-43-88-67-131-14-25-37-50-68-48-76 4-63 137-54 184 2 11 19 9 17-2m123 133 43-10c11-2 9-19-2-16l-43 9c-10 2-8 19 2 17" fill="#691b1a"/><path d="M1128 1603c31 1 36 34 35 59 0 28-27 31-50 35-11 2-9 19 2 17 17-3 40-7 54-17 13-10 12-29 12-44-1-31-15-65-51-67-11 0-13 17-2 17" fill="#691b1a"/><path d="M1152 1705c16 11 17 30 4 44-12 13-29 17-45 22-10 3-3 19 7 16 24-7 50-17 61-41 9-20 2-42-16-54-9-7-20 7-11 13" fill="#691b1a"/><path d="M1151 1756c-2 26-21 49-46 55-11 3-9 20 2 17 33-8 58-35 61-69 1-11-16-14-17-3m-226-70c1 17-10 32 3 46 9 10 23 16 36 18 11 1 13-16 2-17-8-1-21-5-26-13-3-5-1-10 0-16 1-7 3-13 2-20-1-11-18-9-17 2m1285-343c-4 125-50 237-165 297-93 49-201 61-303 75-11 1-8 18 2 17 110-15 227-29 324-85 111-65 155-178 159-302 1-11-16-13-17-2m-983 271c84 39 171 72 256 111 10 4 17-11 7-16-85-39-172-71-257-110-10-5-16 11-6 15m-10 146c32 5 64 10 95 17 11 2 13-15 3-17-32-7-64-12-96-17-10-2-13 15-2 17" fill="#691b1a"/><path d="M1320 1653c4 28 4 56-1 84-2 12-4 30-11 40 0 10-4 13-13 11-4-9-6-19-7-29-1-11-18-9-17 2 2 18 19 81 44 45 28-41 28-108 22-155-1-11-18-9-17 2" fill="#691b1a"/><path d="M1300 1821c59 14 118 26 178 33 11 1 13-16 2-17-60-7-119-19-177-33-11-3-13 14-3 17m227-111c-2 70 48 122 115 134 80 14 138-35 180-97 6-9-7-19-13-10-32 46-71 88-131 92-69 5-137-44-134-116 0-11-17-14-17-3m-261-506c-4-61 21-142 76-175 52-31 104-6 143 33 20 20 57-6 41-31-45-70-132-99-206-56-35 20-61 52-76 88-21 50-16 93-9 146 3 17 33 13 31-5m831 3c25-84 6-185-79-227-74-37-160-4-200 66-14 25 20 53 40 31 35-39 85-67 137-42 61 29 67 107 64 167-1 22 32 26 38 5" fill="#691b1a"/><path d="M1237 1035c45-90 134-125 224-77 6 3 11-5 5-9-93-59-190-12-235 82-1 4 4 8 6 4m623-71c97-47 216-8 242 102 1 5 9 4 9-1-13-127-157-154-255-106-3 2 0 7 4 5m-390-114c-33-51-75-83-137-89-44-4-111 5-112 61-1 19 25 26 34 10 37-63 160-3 194 33 10 11 29-3 21-15m419-28c43-38 102-74 158-37 19 13 37-14 23-30-64-72-150-3-204 45-15 14 8 36 23 22m-587 483c53 56 171 61 210-14 5-10-11-17-16-7-32 62-136 57-181 11-7-8-21 3-13 10m539-14c44 64 155 81 200 7 5-9-8-20-14-11-39 66-134 49-172-6-6-10-20 1-14 10m401-64c13-19 41-30 65-25 27 6 32 38 34 60 2 25 0 55-10 80-18 44-66 70-113 69-11 0-13 17-2 17 88 1 141-62 142-147 1-33-3-69-34-88-34-23-74-9-95 24-6 9 7 19 13 10" fill="#691b1a"/><path d="M2245 1366c13-29 32-55 56-75 8-7-2-21-10-14-27 23-47 50-62 82-4 10 11 17 16 7" fill="#691b1a"/><path d="M2262 1336c12 1 22 8 26 19 3 11 19 4 15-6-5-17-21-29-39-30-11-1-13 16-2 17m-599-880a636 636 0 0 0 62 359c36 85 86 184 176 224 10 4 17-12 7-16-89-39-137-141-172-226a609 609 0 0 1-56-338c2-11-15-13-17-3m255 5c122 154 209 374 160 571-2 11 15 13 17 3 50-202-38-427-164-584-7-9-20 1-13 10m-96 95c100 129 129 289 167 444 3 11 20 9 17-2-39-158-68-321-171-452-6-9-20 1-13 10m-326-123c-65 97-93 209-86 325 7 98 29 234 120 291 9 5 20-8 11-14-88-54-108-185-114-279-7-112 20-220 83-312 6-9-7-20-14-11" fill="#691b1a"/><path d="M1655 517c-57 173-55 345-22 524 2 10 19 8 17-3-32-174-35-344 21-515 3-10-12-17-16-6" fill="#691b1a"/><path d="M1637 1040c-33-30-68-72-81-115-3-10-19-4-15 7 13 46 50 90 86 121 8 7 18-6 10-13" fill="#691b1a"/><path d="M1052 1289c-166-309 20-716 308-876a706 706 0 0 1 575-62 657 657 0 0 1 390 334c82 165 113 375 14 540-5 9 11 16 16 7 90-150 74-338 12-495a674 674 0 0 0-362-377 716 716 0 0 0-587 5 737 737 0 0 0-379 380c-75 173-94 381-2 551 5 9 21 3 15-7" fill="#691b1a"/><path d="M2095 899c16 105 57 229 162 277 10 4 16-11 6-16-98-45-136-165-151-264-2-10-19-8-17 3m-685-261a846 846 0 0 0-95 372c0 11 17 14 17 3 5-131 31-253 93-368 5-10-10-17-15-7m-170 5c-77 144-147 362-5 491 8 7 18-6 10-13-135-123-62-335 11-471 5-10-11-17-16-7m1097-24c141-7 173 223 188 323 18 122 23 247 34 371 11 125 24 250 30 375 6 118 1 242-67 344-6 9 7 20 14 11 66-100 76-220 71-337-6-148-23-296-35-444-13-144-16-290-51-430-23-92-67-236-187-230-11 1-8 18 3 17m-1154-99c-52-6-77 39-101 78-19 31-47 80-19 114 7 8 21-2 14-10-25-29 7-75 23-101 19-30 39-69 81-64 11 1 13-16 2-17" fill="#691b1a"/><path d="M1149 524c-68-18-125 32-167 80-47 54-78 120-100 188-22 70-34 142-42 215-11 91-24 181-38 272-26 176-50 355-32 533 12 122 45 276 172 331 61 26 135 17 184-29 41-40 42-93-17-113-10-4-17 12-7 15 67 23 25 83-16 106-29 16-64 21-98 16-58-9-105-50-136-98-72-109-74-263-71-388 3-138 24-274 44-409 19-125 27-253 54-377 15-66 38-132 73-190 38-64 110-158 194-135 11 2 13-15 3-17" fill="#691b1a"/><path d="M1019 1825c-4 64-5 136 13 198 12 40 58 94 96 46 7-9-7-19-14-11-21 27-50-4-60-24-5-9-7-20-9-29-4-19-6-38-8-57-3-40-4-81-2-121 1-11-16-13-16-2" fill="#691b1a"/><path d="M1076 2061c17-10 29-26 33-46 2-10-15-13-17-2-3 13-11 25-23 32-9 5-3 21 7 16m1222-671a724 724 0 0 0 60 457l29 63c16 37 29 127-40 124-11-1-13 16-2 17 42 1 69-32 72-73 5-57-32-109-53-159a735 735 0 0 1-49-427c2-11-15-13-17-2" fill="#691b1a"/><path d="M2507 2056c-31 33-83 36-124 24-26-7-51-22-57-52-5-29 16-54 33-74l-15-5c0 28 15 48 41 58 10 3 17-12 6-16-18-7-30-25-30-44 0-8-11-9-15-4-40 46-56 109 6 144 50 28 128 22 168-20 8-8-6-19-13-11m-1119-901c-6 4-12 8-16 9s-8-1-10-4c-3-7-4-15-3-23-3-1-4-3-4-6 3-15 9-28 19-38 12-14 28-22 41-8h4c4 1 6 5 6 9 1 24-14 50-37 61m65-101c-84-36-128 69-128 140-1 29 6 59 28 79 41 40 105 23 137-20 41-56 30-171-37-199m507 93-4 5c-4 6-8 11-12 14-11 7-24 8-34-1-10-10-10-26-6-38 4-13 11-27 23-33 6-4 15-5 22-3l11 4c16 11 10 34 0 52m87-4-1-9c-5-24-16-48-35-63-33-26-76-15-102 15-49 58-48 193 48 205 29 4 56-11 72-35 21-32 23-76 18-113m-476 265c50 49 145 48 186-11 6-9-7-20-13-11-36 53-119 52-162 9-8-8-18 5-11 13m200 323c10 2 18 12 17 23s15 14 17 3c2-21-12-39-32-43-11-2-13 15-2 17" fill="#691b1a"/><path d="M1787 1729c119-1 169 165 209 250 5 10 20 3 16-7-44-94-98-261-227-260-11 0-9 17 2 17m511-1120c35 2 59 27 70 58 6 17 22 84 4 95-9 5 1 19 11 13 28-17 10-84 3-109-12-39-42-72-85-74-11 0-14 17-3 17m-1129 431c-12 30-32 54-58 73-9 7 2 20 11 14 28-20 49-48 62-80 4-11-11-17-15-7" fill="#691b1a"/><path d="M1134 1100c0 73 9 144 23 216 2 10 19 8 17-3-13-69-24-139-23-210 0-11-16-14-17-3" fill="#691b1a"/><path d="M1157 1323c-7 58-14 120 3 177 17 60 60 98 112 129 99 60 207 76 319 96 11 2 13-15 3-17-96-17-193-29-280-75-56-29-112-65-134-127-21-57-13-122-6-181 1-11-16-13-17-2" fill="#691b1a"/><path d="M1081 1407c20 18 45 29 71 33 11 2 14-15 3-17-24-3-45-13-64-29-8-7-18 6-10 13m-27-85c-3-28 1-57 18-80 16-23 47-34 70-13 8 7 19-6 10-14-24-21-59-17-83 4-28 26-36 68-32 105 1 11 18 9 17-2" fill="#691b1a"/><path d="M1082 1294c15 13 25 31 28 51 2 11 19 8 17-2-3-25-16-46-35-62-8-7-19 6-10 13" fill="#691b1a"/><path d="M1108 1309c-12-1-22 2-32 7-4 3-4 9-2 12 3 4 8 4 12 2 6-3 13-5 20-4 11 1 13-16 2-17m1116-150c0 47-5 93-15 139-2 10 15 13 17 2 10-47 15-95 14-143 0-11-17-9-16 2m-702 1059c18 66 32 135 55 199 4 10 20 4 16-6-23-65-37-133-55-199-3-11-19-4-16 6" fill="#691b1a"/><path d="m1572 2406-4 24c-1 7 8 13 14 8 9-8 19-12 30-13 11 0 9-17-2-16-14 1-28 6-39 15l14 8 4-24c1-10-16-13-17-2m58 13c10-1 20 0 30 3 5 1 9 0 11-5 2-3 0-10-4-11-13-3-26-5-39-4-11 1-9 18 2 17" fill="#691b1a"/><path d="M1656 2263c-5 47-1 94 3 142 0 11 17 8 16-2-3-46-7-92-2-138 1-11-16-13-17-2" fill="#691b1a"/><path d="m1578 2433 1 20c0 3 4 7 7 7l51 1c10 0 22 2 30-3 16-8 13-29 9-43-2-11-18-4-15 6 1 5 4 15 1 20-6 7-18 3-25 3h-48l7 7-1-21c0-10-17-8-17 3m201-51c-1-41 5-82 2-122-1-11-17-9-17 2 3 41-3 81-2 122 1 11 18 8 17-2" fill="#691b1a"/><path d="M1763 2383c-10 6-17 17-19 29-1 5 5 10 10 9l29-3c11-1 9-18-2-17l-29 3 9 10c2-8 6-13 13-17 4-2 4-9 1-12-3-4-8-4-12-2m41 40c12-3 23 1 30 10s20-1 14-10a44 44 0 0 0-46-17c-10 3-8 20 2 17" fill="#691b1a"/><path d="M1852 2431c19-61 26-127 34-190 1-11-16-14-17-3-8 62-14 127-32 187-4 10 12 17 15 6" fill="#691b1a"/><path d="M1757 2418c-7 16-22 37 4 42 29 6 63 3 88-11 10-6 4-21-6-16-18 10-37 12-58 12l-22-1 10-19c5-10-11-17-16-7m-266-626c-24 119-90 222-81 347 1 10 16 11 16 0 3-55 6-107 24-159 20-61 39-122 57-184 3-10-14-15-16-4m-45 405c44 20 94 30 141 44s94 26 143 27c77 3 144-9 199-65 8-8-4-20-12-12-64 58-145 67-228 54-79-12-162-60-242-52-2 0-3 3-1 4m389-412c60 129 109 250 120 393 1 11 18 12 18 0-3-146-64-271-132-397-2-4-8 0-6 4" fill="#691b1a"/><path d="M1872 1808c1 17-3 34-5 51 0 4 7 6 9 2 7-16 6-37 3-54 0-4-7-4-7 1m63 208c23-7 45-18 65-32 8-6-2-20-11-14-18 14-38 24-60 30-11 4-4 19 6 16" fill="#691b1a"/><path d="M1968 2000c10 24 19 48 26 73 5 18 30 87 8 100-10 6 0 19 10 14 27-16 15-48 9-74-9-41-22-81-37-120-4-10-20-4-16 7m1 156c1-2 2-3 5-4 11-1 8-18-3-17-8 1-15 7-18 14-1 4 0 9 5 11 4 2 9 0 11-4" fill="#691b1a"/><path d="M1961 2186c7 4 13 9 21 12 10 4 20 2 28-5 9-7-1-21-10-14-11 10-22-3-33-9-9-5-16 11-6 16m-543-60c-10 13-28 31-29 48-1 16 14 26 25 34 33 25 75 48 117 49 6 0 9-9 3-12-28-12-57-20-84-35-13-8-36-19-41-33-3-13 10-35 15-48 2-5-4-6-6-3m247 158c36 10 68 9 104-1 10-3 4-19-7-16-32 10-62 9-95 0-10-3-12 14-2 17" fill="#691b1a"/><path d="M1882 2273c41-18 78-40 92-85 3-11-12-18-15-7-13 41-47 60-84 77-10 4-3 20 7 15" fill="#691b1a"/><path d="M1911 2233c8-5 13-13 17-21 3-6 8-18 2-23-2-1-3-2-5-1-6 3-6 12-8 18-2 8-6 15-10 23-2 2 1 6 4 4m-834-190c10 7 19 14 30 20 2 1 3-2 2-3-9-8-20-13-30-20-2-1-3 2-2 3m18-8c7 8 15 16 24 23 2 1 4-1 2-3-7-8-16-15-25-22-1 0-2 1-1 2m7-4 22 17c2 1 3-1 2-3-6-6-15-11-22-17-2-1-4 1-2 3m1230-17c13 1 33-2 43-13 1-1 0-3-2-3-6 3-12 7-19 9l-22 4c-2 0-2 3 0 3m23 8c12-5 25-10 33-20 1-2-1-4-3-3-10 7-20 14-32 19-2 1-1 4 2 4m20-1 10-7c1-2-1-5-3-3l-9 7c-2 2 0 4 2 3m-578 344c28-3 52-21 70-40 2-3-1-6-4-4-21 16-39 34-66 40-2 0-2 4 0 4m-19-40c7 4 12 10 18 14 2 2 5-1 3-3-4-7-12-11-19-15-2-1-4 3-2 4m10 16c3 0 2-3 0-3-3 0-2 3 0 3m-175 5c20-5 41-14 52-33 2-3-2-5-5-3a99 99 0 0 1-48 33c-2 0-1 3 1 3m35-5 7-4c2-2 0-5-3-4l-6 5c-3 1 0 5 2 3m-91-40c14 12 27 25 39 38l3-6-29-8c-3-1-5 4-2 6 9 5 20 7 30 9 4 1 6-4 3-6-13-13-27-24-41-35-2-2-4 1-3 2m-118-157c32 18 75 28 112 23 4-1 4-7-1-7-39-2-72-7-110-20-2-1-3 3-1 4" fill="#691b1a"/><path d="M1505 2146c9 3 18 8 26 13 2 2 5-3 3-4-8-7-18-11-28-14-3-1-4 4-1 5m42-414c10-5 20-7 31-9 11-1 9-18-2-17-14 2-26 5-39 13-9 5 1 19 10 13m103 177c3 29 4 58 3 87 0 11 17 13 17 3 1-31 0-62-3-92-1-11-18-9-17 2m40 5-6 86c-1 11 16 13 17 2l6-85c1-11-16-14-17-3" fill="#691b1a"/><path d="M1658 1963c11-2 21-3 31-2 11 1 14-16 3-17-12-1-24 0-36 2-11 2-8 19 2 17m87-23c2-4 4-13 8-16 6-4 13 0 17 5 9 11 9 32 6 45-3 16-18 45-35 17-7-13-3-32 2-45 4-10-12-17-16-7-8 22-11 60 11 76 22 17 45-6 52-26 8-24 7-60-12-78-22-19-41 2-48 23-4 10 12 17 15 6m-80-1455c-30 110-8 224 34 328 31 77 71 182 158 209 4 2 6-5 2-7-90-32-133-150-163-232-35-96-50-196-27-297 0-2-3-3-4-1" fill="#691b1a"/><path d="M1664 508c-31 158-54 334-2 490 2 5 9 3 7-1-45-165-20-323-2-489h-3m-225 54a414 414 0 0 0 15 455c2 3 6 1 4-2-41-71-68-141-71-223a502 502 0 0 1 52-230m409 17a807 807 0 0 1 162 440c0 5 7 5 7 0-3-162-67-317-166-443-2-2-5 1-3 3m-616 94c-66 56-87 169-91 251-3 68-3 179 69 214 5 2 8-4 4-7-72-37-69-152-64-221 6-76 26-181 85-234 2-2-1-5-3-3" fill="#691b1a"/><path d="M1082 672c-22 23-9 77-2 104 12 46 35 90 71 122 4 3 9-2 6-5-26-31-49-62-63-100-10-30-29-89-9-118 2-2-2-4-3-3" fill="#691b1a"/><path d="M1052 732c-6 69 19 149 87 179 3 2 7-3 3-5-62-32-93-106-88-174h-2m977-136c82-46 184-42 260 14 3 2 7-3 4-5-74-68-183-61-267-14-3 2 0 7 3 5" fill="#691b1a"/><path d="M2029 610c91-21 190-8 276 25 4 2 7-4 3-6-85-43-189-45-281-25-3 1-2 6 2 6m84 302c107 9 222-38 262-145 1-3-5-5-6-2a262 262 0 0 1-256 139c-5 0-5 7 0 8" fill="#691b1a"/><path d="M2106 927c104 29 257-17 272-140 0-5-7-5-8-1-24 114-159 164-263 135-4-1-5 5-1 6m-975-315c34 13 62 32 92 52 4 3 10-4 6-8-27-25-61-41-96-50-4-1-6 5-2 6m13-16c41 2 69 26 97 54 3 2 7-1 5-4-19-37-63-53-102-53-3 0-2 3 0 3m-79 37c-87 25-119 121-142 199a2455 2455 0 0 0-92 808c6 112 18 227 66 329 40 85 134 204 240 142 4-3 0-9-4-7-153 89-252-172-275-278-28-134-29-275-23-412a2381 2381 0 0 1 111-625c21-63 54-127 120-151 3-1 2-6-1-5" fill="#691b1a"/><path d="M2378 744c77 74 92 182 99 284a16466 16466 0 0 1 26 736c0 57 3 115-9 170-6 30-17 60-35 85-27 37-84 66-119 18-3-3-9 0-6 3 20 30 55 37 87 22 43-20 66-69 77-113 18-65 13-135 12-202a17087 17087 0 0 0-25-713c-7-105-20-221-104-293-2-1-5 1-3 3m-840-299a760 760 0 0 0-24 600 771 771 0 0 1 24-600" fill="#691b1a"/><path d="M1549 485c-41 169-53 346-29 519 1 1 3 1 3-1a1475 1475 0 0 1 26-518m180 11c33 180 96 358 190 515 1 2 4 1 3-1a1742 1742 0 0 1-193-514m105 217c25 94 62 184 109 269a1228 1228 0 0 1-109-269m47-213a814 814 0 0 1 160 499c0 2 3 2 3 0a790 790 0 0 0-163-499" fill="#691b1a"/><path d="M2002 673a1388 1388 0 0 1 63 270c4 32 7 65-6 95-1 2 2 3 3 1 12-26 11-53 8-81a1399 1399 0 0 0-68-285m-612-184a752 752 0 0 0-126 555c1 2 4 1 3-1a778 778 0 0 1 123-554m-144 227c-49 93-30 200-5 297 1 2 3 1 3 0-23-97-45-204 3-296 1-1 0-2-1-1m-196 14c-41 123-43 285 72 370 2 1 3-1 2-2-48-39-79-94-91-154a436 436 0 0 1 17-214" fill="#691b1a"/><path d="M1033 792c-19 22-25 49-26 77-2 36 0 73 6 109 11 58 43 117 101 139 2 0 3-2 1-3-57-23-88-79-99-137-6-32-7-64-7-96 1-31 4-64 25-88l-1-1m1064-43c76-38 160-54 245-46 2 0 2-4 0-4-85-9-171 8-246 48-2 1-1 3 1 2" fill="#691b1a"/><path d="M2079 723c75-37 159-47 240-31 2 0 3-2 1-3a363 363 0 0 0-241 34m302 106c-18 107-61 220-168 266-2 0-1 3 1 3 109-41 152-163 169-269h-2" fill="#691b1a"/><path d="M2231 1120c79-35 137-110 149-197h-3c-12 85-68 161-147 196 0 1 0 2 1 1M1079 589c-110 1-188 93-227 187-24 58-40 120-54 180-14 64-26 128-35 192-19 133-29 266-34 400-2 67-4 133-3 200 0 62 6 125 25 184 17 56 47 110 91 149s104 65 163 51c2 0 1-3-1-2-120 20-211-87-246-190-40-115-29-243-25-363 8-247 27-500 100-736 36-116 111-244 246-250 1 0 2-2 0-2m1308 92c104 10 147 116 162 205a4085 4085 0 0 1 27 968c-14 105-55 215-158 260-1 1 0 4 2 3 83-33 130-119 149-203 11-51 15-104 18-157a4086 4086 0 0 0-33-864c-8-51-21-105-53-147-27-37-67-65-114-66v1m-28 520a751 751 0 0 1-67 468c-20 41-52 84-48 132 3 50 40 90 73 124 2 2 4-1 3-2-33-35-71-75-72-126-2-53 37-101 58-147a745 745 0 0 0 53-449" fill="#691b1a"/><path d="M985 1115c-44 155-86 311-103 472-8 81-9 163 0 244 7 62 18 136 73 175 24 18 55 25 84 14 26-10 45-33 46-61 0-2-2-2-2 0-3 32-30 57-61 62-33 5-66-13-87-38-23-26-34-60-41-93-7-36-11-73-13-110-10-145 13-290 45-430 18-79 40-157 61-235h-2m505-656c-105 127-195 287-160 457 9 44 26 86 53 123 1 1 3 0 2-2-60-84-72-193-49-293a711 711 0 0 1 154-285m170 72c-28 93-33 193-13 288 16 76 56 163 142 176 2 0 2-3 0-4-89-15-126-107-141-186a577 577 0 0 1 12-274m-474-6c-10-2-12-5-7-10a579 579 0 0 1 194-176c87-45 189-56 283-25 2 1 2-2 1-3-189-73-385 56-486 210l1 2c4 4 8 5 14 3v-1m821-168c75-3 144 30 201 75 56 46 108 106 105 183 0 2 2 2 3 0 10-74-51-141-104-184-58-47-129-80-205-75v1m-849 176c-11-64-60-122-126-133-60-9-124 23-147 80-1 1 2 2 2 1 26-56 90-88 149-75 62 13 108 68 119 128 0 2 3 2 3-1m1164 68c36-27 80-49 124-55 24-3 47 2 65 19 14 13 23 31 33 48 1 2 5 0 3-3-20-38-45-73-93-69-49 3-96 29-134 58-1 1 0 3 2 2" fill="#691b1a"/><path d="M956 535c-56 7-99 55-99 112 0-57-43-105-98-112 55-8 98-55 98-113 0 58 43 105 99 113" fill="#f9d406"/><path d="M781 535c37 12 65 42 76 78 11-36 40-66 77-78-37-12-66-42-77-79-11 37-39 67-76 79zm76 117c-3 0-5-2-5-5 0-54-40-100-94-107a5 5 0 0 1 0-10c54-7 94-53 94-108a5 5 0 1 1 10 0c0 55 41 101 94 108 3 0 5 2 5 5 0 2-2 4-5 5-53 7-94 53-94 107 0 3-2 5-5 5" fill="#b83b30"/><path d="M992 262c-56 7-99 55-99 112 0-57-43-105-99-112 56-8 99-55 99-113 0 58 43 105 99 113" fill="#f9d406"/><path d="M817 262c37 12 65 41 76 78 11-37 40-66 77-78-37-13-66-42-77-79-11 37-39 66-76 79zm76 117c-3 0-5-2-5-5 0-54-40-100-94-107a5 5 0 0 1 0-10c54-7 94-54 94-108a5 5 0 0 1 10 0c0 54 41 101 94 108a5 5 0 0 1 0 10c-53 7-94 53-94 107 0 3-2 5-5 5" fill="#b83b30"/><path d="M1164 458c-55 7-98 55-98 112 0-57-43-105-99-112 56-7 99-55 99-113 0 58 43 106 98 113" fill="#f9d406"/><path d="M989 458c37 12 66 42 77 79 11-37 39-67 76-79-37-12-65-42-76-79-11 37-40 67-77 79zm77 117c-3 0-5-2-5-5 0-54-41-100-95-107a5 5 0 0 1 0-10c54-7 95-53 95-108a5 5 0 0 1 10 0c0 55 40 101 94 108a5 5 0 0 1 0 10c-54 7-94 53-94 107 0 3-2 5-5 5" fill="#b83b30"/><path d="M2236 1910c-37 5-67 37-67 76 0-39-29-71-67-76 38-5 67-37 67-77 0 40 30 72 67 77" fill="#f9d406"/><path d="M2117 1910c26 8 45 28 52 53 8-25 27-45 52-53-25-8-44-29-52-54-7 25-26 46-52 54zm52 80c-1 0-3-2-3-4 0-37-28-68-64-73a3 3 0 0 1 0-6c36-5 64-37 64-74a3 3 0 0 1 7 0c0 37 27 69 64 74a3 3 0 0 1 0 6c-37 5-64 36-64 73 0 2-2 4-4 4" fill="#b83b30"/><path d="M2257 1706c-38 5-67 37-67 76 0-39-30-71-68-76 38-5 68-38 68-77 0 39 29 72 67 77" fill="#f9d406"/><path d="M2138 1706c25 8 44 28 52 53 7-25 26-45 51-53-25-9-44-29-51-54-8 25-27 45-52 54zm52 79c-2 0-4-1-4-3 0-37-27-68-64-73-2 0-3-2-3-3 0-2 1-4 3-4 37-5 64-36 64-73a3 3 0 0 1 7 0c0 37 28 68 64 73a3 3 0 0 1 0 7c-36 5-64 36-64 73 0 2-2 3-3 3" fill="#b83b30"/><path d="M2114 1777c-38 5-67 37-67 77 0-40-29-72-67-77 38-5 67-37 67-76 0 39 29 71 67 76" fill="#f9d406"/><path d="M1995 1777c25 8 45 28 52 54 8-26 27-46 52-54-25-8-44-28-52-53-7 25-27 45-52 53zm52 80c-2 0-3-2-3-3 0-37-28-69-64-74a3 3 0 0 1 0-6c36-5 64-37 64-73a3 3 0 0 1 6 0c0 36 28 68 65 73a3 3 0 0 1 0 6c-37 5-65 37-65 74 0 1-1 3-3 3" fill="#b83b30"/><path d="M1424 2040c-84-32-184 17-233 89-42 62-54 145-33 217 25 84 93 127 178 135 90 8 205-7 239-105 4-11-12-17-15-7-32 92-144 103-228 94-79-8-138-49-159-128-16-59-7-126 22-180 41-74 140-131 223-99 10 4 17-12 6-16" fill="#691b1a"/><path d="M1304 2165c17-10 73-32 81 0 6 23-19 24-34 25l-23 2h-6c-10 2-17-3-19-14 6-9-7-20-14-11-14 19 3 40 24 42 18 2 38-1 56-3 12-1 23-4 29-15 11-21 2-48-20-56-28-9-60 2-84 16-9 6 1 20 10 14m-49-34 17-1 9-1c5 1 4-1-2-6l-3 3-30 18c-10 6 1 19 10 14l25-16c7-4 16-8 16-17 1-8-6-13-13-13l-31 2c-11 1-8 18 2 17m150-41c-10 0-19 5-24 12-3 5-2 11 3 13 6 3 11 6 16 7 5 2 10 1 12-4 1-4 0-10-5-11l-16-7 3 13c4-5 8-6 13-6 4 0 8-6 7-10 0-5-5-7-9-7" fill="#691b1a"/><path d="M1305 2174c22 2 43-1 64-9 5-2 1-9-4-8-19 7-39 10-59 9-6-1-7 8-1 8" fill="#691b1a"/><path d="m1445 1389-1-2c38-12 73-32 102-58a210 210 0 0 1-101 60m17-71a125 125 0 0 0 33-31c-8 14-19 24-33 31m34-5c7-7 12-14 16-22 3-7-2-12-8-12l-5 2c38-56 45-150 13-214 5-1 9-5 12-9l5 1c8 0 16-4 21-10h1c5 0 11-5 9-11l-1-5 15 9a250 250 0 0 1 33 160l-5 6-6-2c-4 0-8 2-11 6-26 40-49 75-89 101m-289-30c-19-18-35-40-48-63-5-33-7-67-8-101l3-22 5-6c15 26 41 53 70 64l6 54c1 8 8 11 15 11l7-1a154 154 0 0 0 24 47c-27 0-52 7-74 17" fill="#fde6cb"/><path d="M1229 1155c-29-11-55-38-70-64l3-4a105 105 0 0 0 50 51c4 0 6-5 2-7-22-11-37-29-47-51l11-19c3 8 7 15 13 20 10 17 23 33 38 48v26m300-96-5-1c3-3 5-6 5-10l1 1 5 1c4 0 8-3 9-7v1c1 3 4 5 6 5-5 6-13 10-21 10m45-17-15-9c-3-7-5-15-6-22 8 10 15 20 21 31m-200 356a292 292 0 0 1-134-33c-26-15-49-35-67-59-6-28-11-57-14-86 13 23 29 45 48 63a236 236 0 0 0 160 69c16 0 33-2 49-5 30-2 60-13 80-34 40-26 63-61 89-101a13 13 0 0 1 17-4l5-6a238 238 0 0 1-61 127 280 280 0 0 1-140 67c-11 2-21 2-32 2" fill="#fab6b0"/><path d="M1407 1330c-34 0-70-12-92-35l-6-3-5 1a177 177 0 0 1-47-74c6-3 10-8 9-15-4-61 21-142 76-175 9-5 18-9 27-11a289 289 0 0 0 15 21c1 0 2-1 1-2l-13-20 19-2c35 0 67 20 94 47 5 5 11 7 17 7 4 0 7 0 10-2a232 232 0 0 1-17 220 128 128 0 0 1-33 31c-16 8-35 12-55 12m13-284c-63 0-95 87-95 148-1 29 6 59 28 79 16 16 36 23 56 23 31 0 62-17 81-43 41-56 30-171-37-199-12-5-23-8-33-8" fill="#fff"/><path d="M1151 1119a722 722 0 0 1 0-19l3-3-3 22" fill="#f2cd8d"/><path d="M1191 1081c-6-5-10-12-13-20l1-2c3 8 7 15 12 22" fill="#f1b38a"/><path d="M1231 1107a226 226 0 0 1-8-9h1l2 1 6 6-1 2" fill="#fab6b0"/><path d="m1232 1105-6-6a11 11 0 0 0 6 1v5m-9-7-1-1 1 1" fill="#f2cd8d"/><path d="M1239 1075c-17-25-33-49-41-78 10-9 21-18 33-26l10 42-10 18c-1 3 1 5 3 5l3-1c6-13 13-24 21-34l4 29a194 194 0 0 0-23 45" fill="#f1b38a"/><path d="m1542 1036-1-1a162 162 0 0 1-35-29l4 1 6 1c6 0 13-2 18-6 2 11 4 23 8 34" fill="#fab6b0"/><path d="m1516 1008-6-1-4-1-4-5-11-38c6 6 14 10 23 10h1l2 2a1331 1331 0 0 0 4 30l2-2-3-26 12 11 2 14c-5 4-12 6-18 6" fill="#f2cd8d"/><path d="m1265 1025-3-29c11-13 23-25 36-34v1c1 3 4 5 7 5 2 0 3-1 4-3l5-12 5-3-2 27c-21 12-38 29-52 48m-22-15-9-41 19-11 2 10 2 21c-5 7-10 13-14 21m18-25-1-8 5 3-4 5m253-12c-9 0-17-4-23-10l-1-4 1-2 24 16h-1" fill="#f1b38a"/><path d="m1457 969-28-10-7-17 21 8c4 7 8 13 14 19" fill="#fab6b0"/><path d="m1460 971-3-2c-6-6-10-12-14-19l9 3 8 18" fill="#f2cd8d"/><path d="m1335 968 2-23 6 19-8 4" fill="#fab6b0"/><path d="m1279 966-1-20 15-5 2 11-16 14" fill="#f1b38a"/><path d="m1363 958 1-6 4-15a143 143 0 0 1 38 2l6 17a144 144 0 0 0-49 2" fill="#fde6cb"/><path d="m1346 963-7-21c10-3 19-4 29-5l-4 15-1 6-17 5m71-6-5-1-6-17h3l8 18" fill="#fab6b0"/><path d="m1320 937 1-1-1 1" fill="#f2cd8d"/><path d="m1317 939 1-5 3-1v3l-1 1-3 2" fill="#f1b38a"/><path d="M1338 930h1-1" fill="#fab6b0"/><path d="M1230 1100a11 11 0 0 1-6-2h-1l-1-1c-20-25-34-53-42-82l18-18c8 29 24 53 41 78l-7 25h-2m75-132c-3 0-6-2-7-5v-1l16-9-5 12c-1 2-2 3-4 3m185-9-1-3 2 1-1 2m-195-7-2-11 25-7-1 5-22 13m-30 28-5-3-1-22 19-9 1 20-14 14m-10-12-2-10 2-1v11" fill="#ec8b81"/><path d="M1551 1049h-1c-2 0-5-2-6-5v-1a280 280 0 0 1-12-55l21 23a259 259 0 0 0 7 27c2 6-4 11-9 11m-301 171c-7 0-14-3-15-11a670 670 0 0 1-6-80l6 5c1 2 3 2 5 2 6 0 12-9 5-15l-14-14a206 206 0 0 1 13-44c5-12 11-23 18-33a694 694 0 0 0 4 15 799 799 0 0 1-1-20c14-19 31-36 52-48l-2 33c0 6 5 10 10 10 3 0 7-2 7-7l3-45 8-4c7 19 16 37 26 54-9 2-18 6-27 11-55 33-80 114-76 175 1 7-3 12-9 15l-7 1m252-151c-6 0-12-2-17-7-27-27-59-47-94-47l-19 2c-10-17-19-35-26-54a147 147 0 0 1 71-6 334 334 0 0 0 39 61c2 0 3-1 2-3-11-19-20-37-29-56a151 151 0 0 1 31 12c13 24 29 46 49 63a757 757 0 0 0 6 11c1 0 2 0 1-1l-2-7 15 11c0 4-2 7-5 10a30 30 0 0 1-22 11m12-54-12-13v-1a211 211 0 0 1 12 14m-280 21c-2 0-4-2-3-5a233 233 0 0 1 10-18l2 1 1-1-1-3c4-8 9-14 14-21l1 12c-8 10-15 21-21 34l-3 1m28-40-1-11a208 208 0 0 1 34-33 162 162 0 0 1 25-15l-1 13a149 149 0 0 0-21 12c-13 9-25 21-36 34m190-43a221 221 0 0 0-30-11l-5-11 28 7 7 15m-113-11-1-6v-6h1a244 244 0 0 1 67 0l3 9a174 174 0 0 0-41-2c-10 1-19 2-29 5" fill="#8d1e1d"/><path d="M1153 1293c-18-24-30-49-36-75l11 2c5 18 12 35 21 52l4 21" fill="#fde6cb"/><path d="M1149 1272c-9-17-16-34-21-52a43 43 0 0 1 15 10l6 42" fill="#fab6b0"/><path d="m1140 1207-21-6c5-6 8-13 8-21l2-4 8-4 3 35" fill="#f2cd8d"/><path d="M1119 1201h-5v-2l8-9 5-10c0 8-3 15-8 21m10-25c3-10 3-21 3-31a12 12 0 0 0 3-4l2 31-8 4" fill="#f1b38a"/><path d="M1114 1199c-3-24-1-48 4-71l4-1 12-10a801 801 0 0 0 0 25l-2 3a90 90 0 0 1-5 35 50 50 0 0 1-13 19" fill="#ec8b81"/><path d="M1370 1164c-3 0-7-2-8-4-3-7-4-15-3-23-3-1-4-3-4-6 3-15 9-28 19-38 8-9 17-15 26-15 5 0 10 2 15 7h4c4 1 6 5 6 9 1 24-14 50-37 61-6 4-12 8-16 9h-2" fill="#fff"/><path d="m1136 1092-3-6 14-27 3-3 4 12c-5 9-11 16-18 24" fill="#f1b38a"/><path d="m1127 1101 6-15 3 6-9 9m20-42 3-5v2l-3 3" fill="#ec8b81"/><path d="m1161 1056 6-26 3 8-1 2-8 16" fill="#fab6b0"/><path d="m1159 1059-1-3 1-11 5-11 3-4a675 675 0 0 0-8 29" fill="#f2cd8d"/><path d="m1158 1056-1-7 2-4-1 11" fill="#f1b38a"/><path d="m1157 1049-1-4 8-11a51 51 0 0 1-7 15" fill="#ec8b81"/><path d="M1496 995c-6-7-11-15-16-24 3 0 6-2 8-4l8 28" fill="#f2cd8d"/><path d="m1480 971-13-25a279 279 0 0 1 18 8l3 13c-2 2-5 4-8 4" fill="#ec8b81"/><path d="M1408 1347c-40 0-81-15-106-42-5-4-2-9 2-12l5-1 6 3c22 23 58 35 92 35 20 0 39-4 55-12a79 79 0 0 0 34-34l3-3 5-2c6 0 11 5 8 12-4 8-9 15-16 22a118 118 0 0 1-88 34m127-297-5-1-1-1-15-11-12-35a177 177 0 0 0 40 34c2 2 3 5 2 7-1 4-5 7-9 7m-26-16a213 213 0 0 1-57-81l-7-15 22 8a263 263 0 0 0 29 49l13 39m-184-14c-5 0-10-4-10-10a1170 1170 0 0 1 5-73l1-1v-3l12-2 4 14a1034 1034 0 0 0-5 68c0 5-4 7-7 7m13-84-2-6h2v6m-98 200c-2 0-4 0-5-2a239 239 0 0 1-56-75l5-12c3-7-3-12-8-12-3 0-5 1-6 3l-3-8 13-15a222 222 0 0 0 65 106c7 6 1 15-5 15" fill="#8d1e1d"/><path d="M1409 1296c-20 0-40-7-56-23-22-20-29-50-28-79 0-61 32-148 95-148 10 0 21 3 33 8 67 28 78 143 37 199-19 26-50 43-81 43m-9-218c-9 0-18 6-26 15a64 64 0 0 0-19 38c0 3 1 5 4 6-1 8 0 16 3 23 1 2 5 4 8 4h2c4-1 10-5 16-9 23-11 38-37 37-61 0-4-2-8-6-9h-4c-5-5-10-7-15-7m-282 50 9-27a162 162 0 0 0 27-33l8 19a182 182 0 0 1-11 13c-1-4-5-7-9-7s-8 3-8 7v17a184 184 0 0 1-16 11m49-48-8-21a185 185 0 0 0 11-21c1-2 3-3 6-3 5 0 11 5 8 12a182 182 0 0 1-17 33" fill="#8d1e1d"/><path d="m1174 1317-21-24a1646 1646 0 0 1-10-63l4 1c7 0 12-10 5-16l-12-8a995 995 0 0 1-6-107c0-4 4-7 8-7s8 3 9 7v3a722 722 0 0 0 8 117 1501 1501 0 0 0 15 97" fill="#8d1e1d"/><path d="m1147 1231-4-1-1-1a43 43 0 0 0-25-11l-3-17h5a56 56 0 0 1 33 14c7 6 2 16-5 16m309-213-2-1a334 334 0 0 1-48-87l11 1a563 563 0 0 0 41 84c1 2 0 3-2 3m-244 120h-2c-22-11-38-29-48-51a165 165 0 0 1-12-31v-2l6-9a255 255 0 0 0 11 35c10 22 25 40 47 51 4 2 2 7-2 7m303-93h-1a757 757 0 0 1-29-91l4 2 1 3 1 4 11 38v1a768 768 0 0 0 13 43m6-40-1-1-3-29 3 2a1497 1497 0 0 0 1 28m-255 40-2-1a694 694 0 0 1-9-87l4-2a788 788 0 0 0 7 90m-23-31-2-1-10-42 3-2 9 41 1 3-1 1m141 25h-1a289 289 0 0 1-50-108l3-1a479 479 0 0 0 10 33 317 317 0 0 0 39 74c1 1 0 2-1 2" fill="#8d1e1d"/><path d="M1913 1359c-71-26-131-86-159-157l-3-4c-3-6-7-11-13-15-1-53 15-108 45-154 5 5 12 8 19 8l8-2 18-5-10 16c-10 17 3 36 19 38-10 17-16 37-19 54-10 49-8 105 22 146-1 2 0 5 1 7 19 27 49 45 81 52l-9 16m-124-40c-23-27-38-59-46-92h1v-1c8 34 24 66 45 93m405-4 16-21v1l-16 20m-39-23a169 169 0 0 0-103-25c8-15 14-31 16-48l10 2c8 0 16-5 19-14 12-41 14-86 3-126l7-5a315 315 0 0 0 116 117l-1 9h-1c-4 0-8 3-11 8-16 30-34 58-55 82" fill="#fde6cb"/><path d="m2223 1193-6-3c-48-29-85-68-110-114l-7 5c-4-14-9-27-16-40a10 10 0 0 0 9-2l9 27c0 2 2 3 4 3 3 0 5-1 5-4-2-17-6-33-12-46 4-18 6-36 8-54a432 432 0 0 0 7 19c20 68 53 133 110 173v11c-4 7-4 15-1 22v3m-421-156c-7 0-14-3-19-8 8-11 16-22 26-33 9 8 20 15 31 20l-12 14a281 281 0 0 0-26 7m186 363c-12 0-23 0-34-2-34-3-71-13-104-31-25-13-45-30-61-48-21-27-37-59-45-93v1h-1c-3-14-4-29-5-44 6 4 10 9 13 15l3 4c28 71 88 131 159 157 23 8 48 13 73 13h2c71 0 125-32 167-80 21-24 39-52 55-82 3-5 7-8 11-8h1c-2 31-6 62-12 92l-16 21c-47 55-125 85-206 85" fill="#fab6b0"/><path d="M1949 1330c-36-1-73-19-94-49-2-3-4-4-6-4-4 0-8 3-9 7-30-41-32-97-22-146 3-17 9-37 19-54l4 1c6 0 12-2 17-8 13-15 29-28 46-38 3 0 5-1 7-3 14-6 28-10 44-10 13 0 26 2 40 9 61 29 67 107 64 167 0 8 4 14 9 17a147 147 0 0 1-29 67c-2-2-4-2-6-2l-6 3c-8 14-18 24-30 31-11 4-21 7-31 7l-17 5m21-274c-23 0-45 12-61 30-49 58-48 193 48 205l9 1c26 0 48-15 63-36a172 172 0 0 0 17-122c-5-24-16-48-35-63a66 66 0 0 0-41-15" fill="#fff"/><path d="M2223 1190c-3-7-3-15 1-22l-1 22m-111-210-5-15v-1l5 16" fill="#f2cd8d"/><path d="M2114 984a432 432 0 0 1-7-20v-3l7 23" fill="#f1b38a"/><path d="m2078 1033-7-10 9-8 2 2-4 15v1" fill="#fab6b0"/><path d="m2071 1023-2-4 1-9 5-2 5 7-9 8" fill="#f2cd8d"/><path d="m2070 1010 1-7 4 5-5 2" fill="#f1b38a"/><path d="m2066 1016-6-6a17 17 0 0 0 7 1l-1 5" fill="#f2cd8d"/><path d="m2065 1011-5-1-16-14v-19c9 6 17 13 24 22l-1 12h-2" fill="#f1b38a"/><path d="M1846 1010c-11-6-22-12-31-20l8-8c8 9 17 17 26 24l-3 4" fill="#fab6b0"/><path d="m2089 967-2-4-2-14v-2l6 3-2 17" fill="#f2cd8d"/><path d="m2086 996-14-16a308 308 0 0 0-4-41l17 8v2l2 14 2 4c0 10-2 19-3 29m-223-1c-10-7-18-15-26-23l6-6a226 226 0 0 1 33-19l5 2-25 10c-3 1-1 6 2 6l2-1c8-4 17-8 27-10l12 21c-13 5-25 12-36 20m178-1-8-6v-19l8 5v20m27-18c-7-6-15-12-24-17l-1-28h1l20 7 1 5 3 33m-166-2-11-22c11-3 21-5 32-6l11 20c-11 1-22 4-32 8" fill="#f1b38a"/><path d="M2001 972h-1l-5-20h1l5 20m-20-5-9-1 8-5 1 6" fill="#f2cd8d"/><path d="M1972 966a144 144 0 0 0-35-1l-10-19 2-1a5 5 0 0 0 3 0 186 186 0 0 1 45 3l3 13-8 5m69-9-9-4c0-9-1-17-3-25l10 2 2 27" fill="#f1b38a"/><path d="m1888 946 2-6 1-2h2l-2 8h-3" fill="#f2cd8d"/><path d="m1891 946 2-8 21-7 5 6 1 2-29 7m-1-6v-1l1-1-1 2" fill="#f1b38a"/><path d="m1993 941-1-1-4-18h1l4 19" fill="#f2cd8d"/><path d="M1974 938a215 215 0 0 0-37-1v-1l-3-10c12-3 24-4 36-4l4 16" fill="#f1b38a"/><path d="m1837 972-1-1 7-5-6 6m44-23-5-2-1-1 6-3 3 5-3 1m7-3-3-5 5-2v1l-2 6m42-1h-1a131 131 0 0 1 1 0m-7-6-5-10 16-3a53 53 0 0 1 3 11l-14 2m-4-2-5-6 1-1 4 7m114 51a160 160 0 0 0-18-10l-2-19 20 10a378 378 0 0 1 0 19m-28-14-4-2-5-20 7 3 2 19m27-21-20-8-4-21 21 4c2 8 3 16 3 25m-31-11-8-1-4-19 8 1 4 19" fill="#ec8b81"/><path d="m2078 1221-10-2c-5-3-9-9-9-17 3-60-3-138-64-167a92 92 0 0 0-84 1c3-4 3-10-3-13-17-7-32-17-45-28 11-8 23-15 36-20a1370 1370 0 0 0 22 37l1-2-20-36c10-4 21-7 32-8a1151 1151 0 0 0 10 17 1216 1216 0 0 1-7-18 143 143 0 0 1 44 2l8 33c1 5 6 7 9 7 5 0 10-3 8-9a5334 5334 0 0 1-5-26l4 2 5 45c0 2 2 3 4 3 1 0 3-1 3-3l-2-41a178 178 0 0 1 26 16v5l2 1 1-1v-3a149 149 0 0 1 22 20l-7 22c0 2 1 2 2 2l1-1 7-20a263 263 0 0 1 9 14c-1 4 2 7 6 8 7 13 12 26 16 40 11 40 9 85-3 126-3 9-11 14-19 14m-237-136-4-1c-16-2-29-21-19-38a164 164 0 0 1 22-30 140 140 0 0 0 18 6c4 0 5-6 1-7l-13-5 3-4a221 221 0 0 0 55 33c-17 10-33 23-46 38-5 6-11 8-17 8m265-16c-2 0-4-1-4-3l-9-27 2-4 4-16c6 13 10 29 12 46 0 3-2 4-5 4m-24-52-2-2a144 144 0 0 0-9-12l1-23 14 16-4 21m-14-18c-7-9-15-16-24-22v-18c9 5 17 11 24 17v23m-27-25a154 154 0 0 0-28-15l-1-14a164 164 0 0 1 29 12v17m-183-9c-3 0-5-5-2-6a211 211 0 0 1 28-11l3 6a201 201 0 0 0-29 11m145-10-7-3h-1l-3-12 1 1 8 1 2 13m-112-3-3-6h3l29-7 3 7c-11 1-21 3-32 6m86-4a181 181 0 0 0-48-3l-2 1-4-7a240 240 0 0 1 51-1l3 10" fill="#8d1e1d"/><path d="M1927 1172c-6 0-12-2-17-7-10-10-10-26-6-38 4-13 11-27 23-33a27 27 0 0 1 22-3l11 4c16 11 10 34 0 52l-4 5c-4 6-8 11-12 14-6 4-12 6-17 6" fill="#fff"/><path d="m2225 1104-7-8 4-2 3 10m-9-11c-21-24-37-55-51-87 24 25 43 55 55 85l-4 2m-47-21" fill="#f1b38a"/><path d="M2236 1145c-27-19-49-44-67-73a635 635 0 0 1-41-99c13 10 26 21 37 33 14 32 30 63 51 87l-3 2c-2 0-1 3 0 3h1l4-2 7 8a240 240 0 0 1 11 41" fill="#ec8b81"/><path d="M1951 1347c-10 0-20-1-29-4-32-7-62-25-81-52-1-2-2-5-1-7 1-4 5-7 9-7 2 0 4 1 6 4 21 30 58 48 94 49h1a86 86 0 0 0 77-42c2-3 4-4 6-4s4 0 6 2c3 3 4 7 2 12-21 34-55 49-90 49m-47-308h-3a221 221 0 0 1-78-57 238 238 0 0 1 14-10 252 252 0 0 0 71 51c6 3 6 9 3 13-2 2-4 3-7 3m182 3-2-1c-4-1-7-4-6-8v-1a451 451 0 0 0 13-82l16 8v7a487 487 0 0 1-14 74c-2 2-4 3-7 3m-88-35c-3 0-8-2-9-7l-8-33-1-6-3-13-3-10-4-16a255 255 0 0 1 18 0l4 18 3 12a8677 8677 0 0 0 11 46c2 6-3 9-8 9m226 150c-57-40-90-105-110-173l-7-23v-3l21 15a530 530 0 0 0 41 99c18 29 40 54 67 73l1 6-4-2c-4 0-8 3-9 8" fill="#8d1e1d"/><path d="m1966 1292-9-1c-96-12-97-147-48-205 16-18 38-30 61-30 14 0 28 5 41 15a104 104 0 0 1 36 72c5 37 3 81-18 113a76 76 0 0 1-63 36m-26-202c-4 0-9 1-13 4-12 6-19 20-23 33-4 12-4 28 6 38 5 5 11 7 17 7 5 0 11-2 17-6 4-3 8-8 12-14l4-5c10-18 16-41 0-52l-11-4-9-1" fill="#8d1e1d"/><path d="M2239 1204v-2h1v1l-1 1" fill="#fde6cb"/><path d="M2240 1202h-1v-1l1 1m0-18v-1 1" fill="#f2cd8d"/><path d="M2240 1203v-1l-1-1 1-17v-1a623 623 0 0 0 0 20" fill="#ec8b81"/><path d="m2238 1224 1-20 1-1-2 21" fill="#8d1e1d"/><path d="M2210 1295v-1a636 636 0 0 0 14-137c1-5 5-8 9-8l4 2a242 242 0 0 1 3 32v1l-1 17v1a814 814 0 0 0-1 22c-5 27-15 50-28 71m-352-273h-1a140 140 0 0 1-48-26l6-6a159 159 0 0 0 44 25c4 1 3 7-1 7m156 0c-2 0-4-1-4-3a1018 1018 0 0 0-13-96l11 1a660 660 0 0 1 9 95c0 2-2 3-3 3m-93-10-2-1a1370 1370 0 0 1-35-63l-3-5 4-2 3 5 3 6a1950 1950 0 0 0 30 60m23-29-1-1a1151 1151 0 0 1-20-36l-3-7-1-2-4-7 3-1 5 10 4 7a1416 1416 0 0 0 17 37m99 17-2-1v-5a835 835 0 0 0-2-64l4 1 1 28v40l-1 1m18 40c-1 0-2 0-2-2a116 116 0 0 0 9-39v-23l-3-33-1-5 4 1a1030 1030 0 0 1 4 41 174 174 0 0 1-3 39l-7 20-1 1m152 58c-1 0-2-3 0-3a292 292 0 0 0 7-4l2 3a172 172 0 0 1-9 4m18 22-1-1 1 1" fill="#8d1e1d"/><path d="M1621 1206c31-37 83-35 113 1 11 14 31-6 20-19a99 99 0 0 0-152-2c-12 14 8 34 19 20" fill="#691b1a"/><path d="M1510 1323c-94 76-264 52-335-46-55-78-30-166 22-234 2 3 4 5 8 7 13 8 28-2 40-8 17-10 58-37 41-61l-5-6c86-31 182-18 248 55 75 84 72 221-19 293zm14-333c-85-76-219-76-309-7-4 3-4 9-2 14a234 234 0 0 0-89 213c17 114 126 178 233 183 102 5 192-46 233-142 38-92 8-196-66-261m548 366c-110 24-257-8-295-127-22-69-3-135 37-187 3 4 8 6 13 7 12 1 24-9 33-15 9-7 21-16 24-27l7-1c17-2 14-24 1-30l-1-1c17-10 36-18 56-25 5-1 8-5 9-9 100-8 197 61 236 154 43 104-3 235-120 261zm125-305c-59-98-185-169-295-114-2 2-3 3-3 5a267 267 0 0 0-158 201 209 209 0 0 0 151 232c97 27 221 28 291-56 63-76 63-185 14-268" fill="#fff"/><path d="M1936 985c-17-6-26 20-9 26s26-20 9-26m-619 14c-7-2-11 10-3 12 7 3 11-9 3-12" fill="#fff"/><path d="M1185 1313c-97-104-51-267 64-336 103-62 239-40 306 63 56 86 52 204-20 280-92 96-259 81-350-7-13-13-33 7-20 20 81 78 208 102 312 60 94-39 150-138 144-238-6-92-59-180-144-219-97-45-216-18-292 55-94 92-112 242-20 342 12 13 32-7 20-20m672 42c-137-77-133-268-20-367 161-142 435 31 379 239-42 154-229 194-359 128-16-8-30 16-14 24 119 60 282 46 363-68 74-102 50-245-41-328-76-71-193-98-288-54a272 272 0 0 0-149 203 233 233 0 0 0 115 247c16 9 30-15 14-24" fill="#691b1a"/></svg>