<svg xmlns="http://www.w3.org/2000/svg" xml:space="preserve" viewBox="0 0 2137.8 3149.3"><defs><clipPath clipPathUnits="userSpaceOnUse" id="a"><path d="M23656 27298c-423 0-1121 390-1995 747-1250 511-2389 761-2147 1354 133 325 558 492 1120 492 463 0 1019-113 1583-344 1251-510 2068-1405 1826-1998-73-178-205-251-387-251"/></clipPath></defs><path d="M815 2884c0 312 568 312 568 0H815" fill="#cad0d7"/><path d="M1099 3122c-138 0-287-75-287-238h7c0 159 145 231 280 231s281-72 281-231h7c0 163-149 238-288 238" fill="#000072"/><path d="M1099 3115h-11l36-7 33 2c-19 3-39 5-58 5" fill="#e7eaed"/><path d="m1099 3118-31-1a371 371 0 0 0 31-2c19 0 39-2 58-5a363 363 0 0 0 19 0c-25 6-51 8-77 8" fill="#8c8cbf"/><path d="m1201 3101-27-10c71-29 127-84 142-164l62-10c-14 99-89 159-177 184" fill="#e7eaed"/><path d="m1206 3103-5-2c88-25 163-85 177-184l3-1c-13 97-85 160-175 187" fill="#8c8cbf"/><path d="m1195 3110 18-6 9 3-27 3" fill="#0198d4"/><path d="m1176 3110 30-7 7 1-18 6h-19" fill="#000072"/><path d="M1124 3108c-109-13-209-73-234-179 48 7 97 11 145 13 19 72 72 122 139 149-16 7-33 13-50 17" fill="#8d91b9"/><path d="m1157 3110-33-2c17-4 34-10 50-17l27 10c-15 4-29 7-44 9" fill="#a1a3c8"/><path d="m1168 3111-11-1c15-2 29-5 44-9l5 2a351 351 0 0 1-38 8" fill="#6262a8"/><path d="M1475 2453v319c0 54-39 101-92 112-189 39-378 39-568 0-53-11-91-58-91-112v-311l751-8" fill="#a9b0bb"/><path d="M1099 2916c-95 0-190-9-284-29-55-11-94-59-94-115v-311h6v311c0 52 38 98 89 108 188 39 379 39 567 0 51-10 88-56 88-108v-319h7v319c0 56-40 104-94 115-94 20-190 29-285 29" fill="#000072"/><path d="M1374 2854c21-21 35-50 35-82v-238l35-9v247c0 39-28 73-67 81l-3 1" fill="#d8dbe0"/><path d="M1052 2881c-74-3-149-11-223-26-22-21-36-51-36-83v-231c60 13 120 22 180 28v203c0 50 32 94 79 109" fill="#767ba5"/><path d="M1099 2944c-97 0-194-10-290-30-67-14-116-73-116-142v-311a31 31 0 0 1 62 0v311c0 39 28 73 67 81 184 38 371 38 555 0 39-8 67-42 67-81v-319a31 31 0 0 1 62 0v319c0 69-49 128-116 142-97 20-194 30-291 30" fill="#000072"/><path d="M1099 3149c-81 0-156-23-213-64a240 240 0 0 1-102-201 31 31 0 1 1 62 0c0 140 132 203 253 203 122 0 253-63 253-203a31 31 0 1 1 62 0c0 174-158 265-315 265" fill="#000072"/><path d="M1200 2846c-51 0-92-41-92-92v-181c61-1 123-6 184-15v196c0 51-41 92-92 92" fill="#d8dbe0"/><path d="M2056 1180c1 301-137 570-352 748a449 449 0 0 0-161 347v108c0 48-32 90-78 104-253 74-506 74-759-1-45-13-76-55-76-103v-103c0-138-62-269-167-357A968 968 0 0 1 307 602c23-32 33-72 26-110-95-541 73-587 454-235a974 974 0 0 1 605 2c384-356 553-309 454 241-7 38 2 78 25 109a966 966 0 0 1 185 571" fill="#ffbe2e"/><path d="M422 35c-17 0-32 3-45 11-72 39-86 189-40 445 7 39-3 81-27 113a964 964 0 0 0 155 1316 469 469 0 0 1 169 360v103c0 46 30 87 73 100 251 74 506 75 757 0 45-13 76-53 76-100v-108c0-137 59-264 162-350a964 964 0 0 0 166-1314c-23-32-32-73-25-112 47-261 34-414-39-453-74-41-211 32-410 216l-1 1h-2a967 967 0 0 0-603-2h-2l-2-1C623 110 501 35 422 35m665 2511c-128 0-255-19-382-56-46-14-78-58-78-107v-103c0-137-61-266-166-355A971 971 0 0 1 304 600c23-31 33-70 26-108-47-263-32-411 44-453 77-42 212 28 414 214a978 978 0 0 1 603 2C1594 68 1730-3 1807 40c77 42 91 192 42 460-6 38 3 77 25 107a971 971 0 0 1-168 1324 444 444 0 0 0-159 344v108c0 50-33 93-81 107-126 37-253 56-379 56" fill="#000072"/><path d="M1233 2550c-12 0-22-10-22-23v-540c0-29 8-57 23-82l114-180c7-11 3-21 1-25-3-3-9-12-21-12H846c-13 0-19 9-21 12-2 4-6 14 0 25l114 180c15 25 24 53 24 82v540a23 23 0 1 1-46 0v-540c0-20-6-40-17-58l-113-180a69 69 0 0 1-2-71c12-22 35-36 61-36h482c25 0 48 14 60 36 13 23 12 49-2 71l-113 180c-11 18-17 38-17 58v540c0 13-10 23-23 23" fill="#fff"/><path d="M1430 2464c23-19 37-49 37-81v-108c0-134 58-262 161-347a968 968 0 0 0 167-1319c-23-31-17-74-10-112 47-278 29-387-24-434 13 0 23 3 30 7 34 19 83 99 24 424-8 47 3 95 31 134a936 936 0 0 1-162 1277 478 478 0 0 0-172 370v108c0 35-22 64-56 74l-26 7" fill="#ffe5ab"/><path d="M1051 2505c-29-2-59-5-88-9v-18a1438 1438 0 0 0 88 26m-134-16c-52-9-104-21-155-36-46-14-77-56-77-103v-104c0-138-61-268-167-357a956 956 0 0 1-332-748c0-41-2-38 3-77 32-166 150-417 337-550l12-2c23 0 41 25 28 48-61 113-158 333-174 615a924 924 0 0 0 346 749 467 467 0 0 1 168 357v103c0 17 4 34 11 49v56" fill="#b28543"/><path d="m963 2496-46-8v-56c10 19 26 36 46 46v18" fill="#b2b2d4"/><path d="m161 1122-8-2-136-52a23 23 0 0 1 16-43l137 53a23 23 0 0 1-9 44m-80 505a23 23 0 0 1-9-44l135-55a23 23 0 0 1 18 42l-135 56-9 1m-58-278a23 23 0 0 1-1-46l161-4a23 23 0 0 1 2 46l-162 4m1953-227a23 23 0 0 1-8-44l136-53a23 23 0 0 1 17 43l-136 52-9 2m81 505-9-1-135-56a23 23 0 0 1 17-42l135 55a23 23 0 0 1-8 44m58-278h-1l-161-4a23 23 0 1 1 1-46l162 4a23 23 0 0 1-1 46" fill="#000072"/><path d="M423 62c-15 0-25 4-33 8-34 18-83 97-26 416 8 47-3 96-32 135a937 937 0 0 0 151 1278 497 497 0 0 1 178 381v103c0 34 22 64 54 73 246 73 495 74 741 1 34-10 56-39 56-74v-108c0-145 63-280 172-371a936 936 0 0 0 341-724c0-201-62-391-179-552-28-39-39-87-31-134 59-325 10-405-24-424-35-19-131-17-378 212-8 8-20 10-31 7a939 939 0 0 0-586-2c-10 3-22 1-30-7C574 103 474 62 423 62m664 2511c-130 0-260-19-390-57-57-17-98-72-98-133v-103c0-128-57-250-156-334A999 999 0 0 1 282 584c18-25 26-57 21-87-50-280-32-433 57-482 89-48 227 18 434 207a1006 1006 0 0 1 590 2c209-191 348-257 437-209 89 49 107 205 56 490-6 30 1 61 19 86a998 998 0 0 1-173 1361 416 416 0 0 0-149 323v108c0 62-40 116-100 134-129 38-258 56-387 56" fill="#000072"/><path d="M1735 474c-69-60-142-109-214-150 187-184 267-153 214 150m-1287 0c69-60 142-109 214-150-187-184-267-153-214 150m752 677-91 111a29 29 0 0 1-44 0l-92-111c-14-17-4-43 18-47 64-9 128-9 191 0 23 4 33 30 18 47" fill="#000072"/><path d="M988 1405c-66 0-121-54-121-121a23 23 0 1 1 46 0 76 76 0 0 0 151 0v-63a23 23 0 0 1 45 0v63c0 67-54 121-121 121" fill="#000072"/><path d="M1185 1405c-67 0-121-54-121-121v-63a23 23 0 0 1 45 0v63a76 76 0 0 0 151 0 23 23 0 1 1 46 0c0 67-54 121-121 121m443-266c0 90-55 162-122 162s-122-72-122-162 55-163 122-163 122 73 122 163" fill="#000072"/><path d="M1517 1091c0 26-17 48-39 48s-39-22-39-48 17-47 39-47 39 21 39 47" fill="#fff"/><path d="M1478 1047c-20 0-36 20-36 44 0 25 16 44 36 44s36-19 36-44c0-24-16-44-36-44zm0 95c-24 0-43-23-43-51s19-51 43-51 43 23 43 51-19 51-43 51m-932-3c0 90 54 162 121 162s122-72 122-162-55-163-122-163-121 73-121 163" fill="#000072"/><path d="M663 1091c0 26 17 48 39 48s39-22 39-48-17-47-39-47-39 21-39 47" fill="#fff"/><path d="M702 1047c-20 0-36 20-36 44 0 25 16 44 36 44s36-19 36-44c0-24-16-44-36-44zm0 95c-23 0-43-23-43-51s20-51 43-51c24 0 43 23 43 51s-19 51-43 51m-12 1572a23 23 0 0 1 0-46c227-2 551-30 805-152a23 23 0 1 1 20 41c-262 125-593 154-825 157m21 154a23 23 0 0 1 0-46c221-3 536-33 784-152a23 23 0 1 1 20 41c-256 123-578 153-803 157h-1" fill="#000072"/><g clip-path="url(#a)" transform="matrix(.13333 0 0 -.13333 -1581 4345)"><path d="M19272 27298h5013v2593h-5013z" fill="#ffce62"/></g><path d="M1736 1035c-42 0-55-45-72-99-19-63-35-113 24-132 11-3 22-5 32-5 50 0 96 34 112 85 19 63-14 129-74 147-8 3-16 4-22 4" fill="#ffce62"/></svg>